MFEKglifIconFont.ufo
<glyph name="pan" format="2">
  <advance width="700" height="700"/>
  <unicode hex="F002"/>
  <outline>
    <contour>
      <point x="354.571" y="429" type="curve" smooth="yes"/>
      <point x="358.571" y="429" type="line" smooth="yes"/>
      <point x="366.571" y="429"/>
      <point x="372.905" y="428.333"/>
      <point x="377.571" y="427" type="curve" smooth="yes"/>
      <point x="386.905" y="424.333"/>
      <point x="394.238" y="418.5"/>
      <point x="399.571" y="409.5" type="curve" smooth="yes"/>
      <point x="404.905" y="400.5"/>
      <point x="408.571" y="388"/>
      <point x="410.571" y="372" type="curve"/>
      <point x="420.571" y="378"/>
      <point x="429.905" y="381"/>
      <point x="438.571" y="381" type="curve" smooth="yes"/>
      <point x="445.905" y="381"/>
      <point x="453.405" y="378.5"/>
      <point x="461.071" y="373.5" type="curve" smooth="yes"/>
      <point x="468.738" y="368.5"/>
      <point x="474.905" y="361.333"/>
      <point x="479.571" y="352" type="curve" smooth="yes"/>
      <point x="485.571" y="340"/>
      <point x="489.905" y="321"/>
      <point x="492.571" y="295" type="curve"/>
      <point x="499.238" y="297.667"/>
      <point x="505.905" y="299"/>
      <point x="512.571" y="299" type="curve" smooth="yes"/>
      <point x="530.571" y="299"/>
      <point x="543.905" y="292.333"/>
      <point x="552.571" y="279" type="curve" smooth="yes"/>
      <point x="558.571" y="269"/>
      <point x="561.571" y="254"/>
      <point x="561.571" y="234" type="curve" smooth="yes"/>
      <point x="561.571" y="14" type="line" smooth="yes"/>
      <point x="561.571" y="12"/>
      <point x="561.571" y="12"/>
      <point x="561.571" y="10" type="curve" smooth="yes"/>
      <point x="529.571" y="-110" type="line"/>
      <point x="529.571" y="-222" type="line" smooth="yes"/>
      <point x="529.571" y="-226"/>
      <point x="527.905" y="-229.667"/>
      <point x="524.571" y="-233" type="curve" smooth="yes"/>
      <point x="521.238" y="-236.333"/>
      <point x="517.238" y="-238"/>
      <point x="512.571" y="-238" type="curve" smooth="yes"/>
      <point x="260.571" y="-238" type="line" smooth="yes"/>
      <point x="255.905" y="-238"/>
      <point x="252.071" y="-236.333"/>
      <point x="249.071" y="-233" type="curve" smooth="yes"/>
      <point x="246.071" y="-229.667"/>
      <point x="244.571" y="-226"/>
      <point x="244.571" y="-222" type="curve" smooth="yes"/>
      <point x="244.571" y="-113" type="line"/>
      <point x="158.571" y="-4" type="line" smooth="yes"/>
      <point x="156.571" y="-1.33333"/>
      <point x="155.238" y="1.66667"/>
      <point x="154.571" y="5" type="curve" smooth="yes"/>
      <point x="138.571" y="200" type="line" smooth="yes"/>
      <point x="137.905" y="205.333"/>
      <point x="139.571" y="209.667"/>
      <point x="143.571" y="213" type="curve" smooth="yes"/>
      <point x="153.571" y="223"/>
      <point x="165.405" y="228.833"/>
      <point x="179.071" y="230.5" type="curve" smooth="yes"/>
      <point x="192.738" y="232.167"/>
      <point x="204.571" y="230"/>
      <point x="214.571" y="224" type="curve" smooth="yes"/>
      <point x="215.238" y="224"/>
      <point x="216.238" y="223.5"/>
      <point x="217.571" y="222.5" type="curve" smooth="yes"/>
      <point x="218.905" y="221.5"/>
      <point x="219.571" y="220.667"/>
      <point x="219.571" y="220" type="curve"/>
      <point x="219.571" y="234" type="line"/>
      <point x="219.571" y="234"/>
      <point x="219.571" y="234"/>
      <point x="219.571" y="235" type="curve" smooth="yes"/>
      <point x="219.571" y="299" type="line" smooth="yes"/>
      <point x="219.571" y="331.667"/>
      <point x="227.238" y="354.667"/>
      <point x="242.571" y="368" type="curve" smooth="yes"/>
      <point x="251.905" y="376.667"/>
      <point x="263.238" y="381"/>
      <point x="276.571" y="381" type="curve" smooth="yes"/>
      <point x="284.571" y="381"/>
      <point x="293.905" y="378.333"/>
      <point x="304.571" y="373" type="curve"/>
      <point x="307.238" y="388.333"/>
      <point x="311.238" y="400.5"/>
      <point x="316.571" y="409.5" type="curve" smooth="yes"/>
      <point x="321.905" y="418.5"/>
      <point x="329.238" y="424.333"/>
      <point x="338.571" y="427" type="curve" smooth="yes"/>
      <point x="343.238" y="428.333"/>
      <point x="348.571" y="429"/>
    </contour>
    <contour>
      <point x="358.571" y="397" type="curve" smooth="yes"/>
      <point x="353.238" y="397"/>
      <point x="349.738" y="396.667"/>
      <point x="348.071" y="396" type="curve" smooth="yes"/>
      <point x="346.405" y="395.333"/>
      <point x="344.905" y="394"/>
      <point x="343.571" y="392" type="curve" smooth="yes"/>
      <point x="336.905" y="381.333"/>
      <point x="333.571" y="355.667"/>
      <point x="333.571" y="315" type="curve" smooth="yes"/>
      <point x="333.571" y="136" type="line" smooth="yes"/>
      <point x="333.571" y="132"/>
      <point x="332.071" y="128.333"/>
      <point x="329.071" y="125" type="curve" smooth="yes"/>
      <point x="326.071" y="121.667"/>
      <point x="322.238" y="120"/>
      <point x="317.571" y="120" type="curve" smooth="yes"/>
      <point x="312.905" y="120"/>
      <point x="309.071" y="121.667"/>
      <point x="306.071" y="125" type="curve" smooth="yes"/>
      <point x="303.071" y="128.333"/>
      <point x="301.571" y="132"/>
      <point x="301.571" y="136" type="curve" smooth="yes"/>
      <point x="301.571" y="316" type="line" smooth="yes"/>
      <point x="301.571" y="330.667"/>
      <point x="298.238" y="340.333"/>
      <point x="291.571" y="345" type="curve" smooth="yes"/>
      <point x="288.238" y="347"/>
      <point x="283.238" y="348"/>
      <point x="276.571" y="348" type="curve" smooth="yes"/>
      <point x="271.238" y="348"/>
      <point x="267.238" y="346.667"/>
      <point x="264.571" y="344" type="curve" smooth="yes"/>
      <point x="256.571" y="336.667"/>
      <point x="252.571" y="321.667"/>
      <point x="252.571" y="299" type="curve" smooth="yes"/>
      <point x="252.571" y="169" type="line"/>
      <point x="252.571" y="120" type="line" smooth="yes"/>
      <point x="252.571" y="115.333"/>
      <point x="250.905" y="111.5"/>
      <point x="247.571" y="108.5" type="curve" smooth="yes"/>
      <point x="244.238" y="105.5"/>
      <point x="240.405" y="104"/>
      <point x="236.071" y="104" type="curve" smooth="yes"/>
      <point x="231.738" y="104"/>
      <point x="227.905" y="105.5"/>
      <point x="224.571" y="108.5" type="curve" smooth="yes"/>
      <point x="221.238" y="111.5"/>
      <point x="219.571" y="115.333"/>
      <point x="219.571" y="120" type="curve" smooth="yes"/>
      <point x="219.571" y="169" type="line" smooth="yes"/>
      <point x="219.571" y="173.667"/>
      <point x="217.738" y="178.5"/>
      <point x="214.071" y="183.5" type="curve" smooth="yes"/>
      <point x="210.405" y="188.5"/>
      <point x="205.905" y="192.333"/>
      <point x="200.571" y="195" type="curve" smooth="yes"/>
      <point x="190.571" y="199.667"/>
      <point x="180.905" y="199"/>
      <point x="171.571" y="193" type="curve"/>
      <point x="186.571" y="12" type="line"/>
      <point x="273.571" y="-98" type="line" smooth="yes"/>
      <point x="275.571" y="-100.667"/>
      <point x="276.571" y="-104"/>
      <point x="276.571" y="-108" type="curve" smooth="yes"/>
      <point x="276.571" y="-205" type="line"/>
      <point x="496.571" y="-205" type="line"/>
      <point x="496.571" y="-108" type="line" smooth="yes"/>
      <point x="496.571" y="-106.667"/>
      <point x="496.905" y="-105.333"/>
      <point x="497.571" y="-104" type="curve" smooth="yes"/>
      <point x="529.571" y="16" type="line"/>
      <point x="529.571" y="234" type="line" smooth="yes"/>
      <point x="529.571" y="248"/>
      <point x="527.905" y="257.333"/>
      <point x="524.571" y="262" type="curve" smooth="yes"/>
      <point x="522.571" y="265.333"/>
      <point x="518.571" y="267"/>
      <point x="512.571" y="267" type="curve" smooth="yes"/>
      <point x="507.238" y="267"/>
      <point x="503.571" y="265.667"/>
      <point x="501.571" y="263" type="curve" smooth="yes"/>
      <point x="498.238" y="259"/>
      <point x="496.571" y="251.333"/>
      <point x="496.571" y="240" type="curve" smooth="yes"/>
      <point x="496.571" y="149"/>
      <point x="496.571" y="149"/>
      <point x="496.571" y="104" type="curve" smooth="yes"/>
      <point x="496.571" y="99.3333"/>
      <point x="495.071" y="95.3333"/>
      <point x="492.071" y="92" type="curve" smooth="yes"/>
      <point x="489.071" y="88.6667"/>
      <point x="485.238" y="87"/>
      <point x="480.571" y="87" type="curve" smooth="yes"/>
      <point x="475.905" y="87"/>
      <point x="471.905" y="88.6667"/>
      <point x="468.571" y="92" type="curve" smooth="yes"/>
      <point x="465.238" y="95.3333"/>
      <point x="463.905" y="99.3333"/>
      <point x="464.571" y="104" type="curve" smooth="yes"/>
      <point x="464.571" y="241" type="line" smooth="yes"/>
      <point x="463.905" y="287.667"/>
      <point x="459.238" y="319.667"/>
      <point x="450.571" y="337" type="curve" smooth="yes"/>
      <point x="447.905" y="342.333"/>
      <point x="446.071" y="345.5"/>
      <point x="445.071" y="346.5" type="curve" smooth="yes"/>
      <point x="444.071" y="347.5"/>
      <point x="442.571" y="348"/>
      <point x="440.571" y="348" type="curve" smooth="yes"/>
      <point x="439.571" y="348"/>
      <point x="439.571" y="348"/>
      <point x="438.571" y="348" type="curve" smooth="yes"/>
      <point x="432.571" y="348"/>
      <point x="427.571" y="346"/>
      <point x="423.571" y="342" type="curve" smooth="yes"/>
      <point x="418.238" y="337.333"/>
      <point x="415.571" y="329.667"/>
      <point x="415.571" y="319" type="curve" smooth="yes"/>
      <point x="415.571" y="318" type="line" smooth="yes"/>
      <point x="415.571" y="317"/>
      <point x="415.571" y="317"/>
      <point x="415.571" y="316" type="curve" smooth="yes"/>
      <point x="415.571" y="315"/>
      <point x="415.571" y="315"/>
      <point x="415.571" y="315" type="curve"/>
      <point x="415.571" y="120" type="line" smooth="yes"/>
      <point x="415.571" y="115.333"/>
      <point x="413.905" y="111.5"/>
      <point x="410.571" y="108.5" type="curve" smooth="yes"/>
      <point x="407.238" y="105.5"/>
      <point x="403.405" y="104"/>
      <point x="399.071" y="104" type="curve" smooth="yes"/>
      <point x="394.738" y="104"/>
      <point x="390.905" y="105.5"/>
      <point x="387.571" y="108.5" type="curve" smooth="yes"/>
      <point x="384.238" y="111.5"/>
      <point x="382.571" y="115.333"/>
      <point x="382.571" y="120" type="curve" smooth="yes"/>
      <point x="382.571" y="316" type="line" smooth="yes"/>
      <point x="381.905" y="356"/>
      <point x="378.238" y="381.333"/>
      <point x="371.571" y="392" type="curve" smooth="yes"/>
      <point x="370.238" y="394.667"/>
      <point x="368.905" y="396.167"/>
      <point x="367.571" y="396.5" type="curve" smooth="yes"/>
      <point x="366.238" y="396.833"/>
      <point x="363.238" y="397"/>
    </contour>
  </outline>
</glyph>
<glyph name="select" format="2">
  <advance width="700" height="700"/>
  <unicode hex="F005"/>
  <outline>
    <contour>
      <point x="179.44" y="428" type="curve" smooth="yes"/>
      <point x="184.774" y="428"/>
      <point x="189.107" y="426"/>
      <point x="192.44" y="422" type="curve" smooth="yes"/>
      <point x="533.44" y="63" type="line" smooth="yes"/>
      <point x="538.774" y="57.6667"/>
      <point x="539.94" y="51.3333"/>
      <point x="536.94" y="44" type="curve" smooth="yes"/>
      <point x="533.94" y="36.6667"/>
      <point x="528.44" y="33"/>
      <point x="520.44" y="33" type="curve" smooth="yes"/>
      <point x="409.44" y="33" type="line"/>
      <point x="421.44" y="14.3333"/>
      <point x="439.44" y="-14"/>
      <point x="463.44" y="-52" type="curve" smooth="yes"/>
      <point x="487.44" y="-90"/>
      <point x="505.44" y="-118.333"/>
      <point x="517.44" y="-137" type="curve" smooth="yes"/>
      <point x="520.107" y="-141.667"/>
      <point x="520.774" y="-146.333"/>
      <point x="519.44" y="-151" type="curve" smooth="yes"/>
      <point x="518.774" y="-155.667"/>
      <point x="516.107" y="-159.333"/>
      <point x="511.44" y="-162" type="curve" smooth="yes"/>
      <point x="385.44" y="-234" type="line" smooth="yes"/>
      <point x="380.774" y="-236.667"/>
      <point x="375.94" y="-237.167"/>
      <point x="370.94" y="-235.5" type="curve" smooth="yes"/>
      <point x="365.94" y="-233.833"/>
      <point x="362.44" y="-230.333"/>
      <point x="360.44" y="-225" type="curve" smooth="yes"/>
      <point x="280.44" y="-35" type="line"/>
      <point x="192.44" y="-123" type="line" smooth="yes"/>
      <point x="186.44" y="-129"/>
      <point x="179.774" y="-130.5"/>
      <point x="172.44" y="-127.5" type="curve" smooth="yes"/>
      <point x="165.107" y="-124.5"/>
      <point x="161.44" y="-119"/>
      <point x="161.44" y="-111" type="curve" smooth="yes"/>
      <point x="161.44" y="410" type="line" smooth="yes"/>
      <point x="161.44" y="418"/>
      <point x="165.107" y="423.333"/>
      <point x="172.44" y="426" type="curve" smooth="yes"/>
      <point x="174.44" y="427.333"/>
      <point x="176.774" y="428"/>
    </contour>
    <contour>
      <point x="197.44" y="365" type="line"/>
      <point x="197.44" y="-67" type="line"/>
      <point x="274.44" y="10" type="line" smooth="yes"/>
      <point x="279.107" y="14"/>
      <point x="284.44" y="15.5"/>
      <point x="290.44" y="14.5" type="curve" smooth="yes"/>
      <point x="296.44" y="13.5"/>
      <point x="300.774" y="10"/>
      <point x="303.44" y="4" type="curve" smooth="yes"/>
      <point x="385.44" y="-193" type="line"/>
      <point x="477.44" y="-140" type="line"/>
      <point x="361.44" y="41" type="line" smooth="yes"/>
      <point x="358.107" y="47"/>
      <point x="358.107" y="53"/>
      <point x="361.44" y="59" type="curve" smooth="yes"/>
      <point x="364.774" y="65.6667"/>
      <point x="369.774" y="69"/>
      <point x="376.44" y="69" type="curve" smooth="yes"/>
      <point x="478.44" y="69" type="line"/>
    </contour>
  </outline>
</glyph>
<glyph name="zoom" format="2">
  <advance width="700" height="700"/>
  <unicode hex="F008"/>
  <outline>
    <contour>
      <point x="350" y="381" type="curve" smooth="yes"/>
      <point x="386" y="381"/>
      <point x="416.667" y="368.167"/>
      <point x="442" y="342.5" type="curve" smooth="yes"/>
      <point x="467.333" y="316.833"/>
      <point x="480" y="286.167"/>
      <point x="480" y="250.5" type="curve" smooth="yes"/>
      <point x="480" y="214.833"/>
      <point x="467.333" y="184.167"/>
      <point x="442" y="158.5" type="curve" smooth="yes"/>
      <point x="416.667" y="132.833"/>
      <point x="386" y="120"/>
      <point x="350" y="120" type="curve" smooth="yes"/>
      <point x="314" y="120"/>
      <point x="283.333" y="132.833"/>
      <point x="258" y="158.5" type="curve" smooth="yes"/>
      <point x="232.667" y="184.167"/>
      <point x="220" y="214.833"/>
      <point x="220" y="250.5" type="curve" smooth="yes"/>
      <point x="220" y="286.167"/>
      <point x="232.667" y="316.833"/>
      <point x="258" y="342.5" type="curve" smooth="yes"/>
      <point x="283.333" y="368.167"/>
      <point x="314" y="381"/>
    </contour>
    <contour>
      <point x="350" y="348" type="curve" smooth="yes"/>
      <point x="322.667" y="348"/>
      <point x="299.5" y="338.5"/>
      <point x="280.5" y="319.5" type="curve" smooth="yes"/>
      <point x="261.5" y="300.5"/>
      <point x="252" y="277.5"/>
      <point x="252" y="250.5" type="curve" smooth="yes"/>
      <point x="252" y="223.5"/>
      <point x="261.5" y="200.5"/>
      <point x="280.5" y="181.5" type="curve" smooth="yes"/>
      <point x="299.5" y="162.5"/>
      <point x="322.667" y="153"/>
      <point x="350" y="153" type="curve" smooth="yes"/>
      <point x="377.333" y="153"/>
      <point x="400.5" y="162.5"/>
      <point x="419.5" y="181.5" type="curve" smooth="yes"/>
      <point x="438.5" y="200.5"/>
      <point x="448" y="223.5"/>
      <point x="448" y="250.5" type="curve" smooth="yes"/>
      <point x="448" y="277.5"/>
      <point x="438.5" y="300.5"/>
      <point x="419.5" y="319.5" type="curve" smooth="yes"/>
      <point x="400.5" y="338.5"/>
      <point x="377.333" y="348"/>
    </contour>
    <contour>
      <point x="318" y="267" type="line"/>
      <point x="383" y="267" type="line" smooth="yes"/>
      <point x="387.667" y="267"/>
      <point x="391.5" y="265.333"/>
      <point x="394.5" y="262" type="curve" smooth="yes"/>
      <point x="397.5" y="258.667"/>
      <point x="399" y="254.833"/>
      <point x="399" y="250.5" type="curve" smooth="yes"/>
      <point x="399" y="246.167"/>
      <point x="397.5" y="242.333"/>
      <point x="394.5" y="239" type="curve" smooth="yes"/>
      <point x="391.5" y="235.667"/>
      <point x="387.667" y="234"/>
      <point x="383" y="234" type="curve" smooth="yes"/>
      <point x="318" y="234" type="line"/>
      <point x="317" y="234" type="line" smooth="yes"/>
      <point x="313" y="234"/>
      <point x="309.333" y="235.667"/>
      <point x="306" y="239" type="curve" smooth="yes"/>
      <point x="302.667" y="242.333"/>
      <point x="301" y="246.167"/>
      <point x="301" y="250.5" type="curve" smooth="yes"/>
      <point x="301" y="254.833"/>
      <point x="302.667" y="258.667"/>
      <point x="306" y="262" type="curve" smooth="yes"/>
      <point x="309.333" y="265.333"/>
      <point x="313" y="267"/>
      <point x="317" y="267" type="curve" smooth="yes"/>
    </contour>
    <contour>
      <point x="350" y="299" type="curve" smooth="yes"/>
      <point x="354.667" y="299"/>
      <point x="358.5" y="297.5"/>
      <point x="361.5" y="294.5" type="curve" smooth="yes"/>
      <point x="364.5" y="291.5"/>
      <point x="366" y="287.667"/>
      <point x="366" y="283" type="curve" smooth="yes"/>
      <point x="366" y="218" type="line" smooth="yes"/>
      <point x="366" y="213.333"/>
      <point x="364.5" y="209.333"/>
      <point x="361.5" y="206" type="curve" smooth="yes"/>
      <point x="358.5" y="202.667"/>
      <point x="354.667" y="201"/>
      <point x="350" y="201" type="curve" smooth="yes"/>
      <point x="345.333" y="201"/>
      <point x="341.5" y="202.667"/>
      <point x="338.5" y="206" type="curve" smooth="yes"/>
      <point x="335.5" y="209.333"/>
      <point x="334" y="213.333"/>
      <point x="334" y="218" type="curve" smooth="yes"/>
      <point x="334" y="283" type="line" smooth="yes"/>
      <point x="334" y="287.667"/>
      <point x="335.5" y="291.5"/>
      <point x="338.5" y="294.5" type="curve" smooth="yes"/>
      <point x="341.5" y="297.5"/>
      <point x="345.333" y="299"/>
    </contour>
    <contour>
      <point x="350" y="429" type="curve" smooth="yes"/>
      <point x="399.333" y="429"/>
      <point x="441.5" y="411.5"/>
      <point x="476.5" y="376.5" type="curve" smooth="yes"/>
      <point x="511.5" y="341.5"/>
      <point x="529" y="299.333"/>
      <point x="529" y="250" type="curve" smooth="yes"/>
      <point x="529" y="200.667"/>
      <point x="511.5" y="158.5"/>
      <point x="476.5" y="123.5" type="curve" smooth="yes"/>
      <point x="441.5" y="88.5"/>
      <point x="399.333" y="71"/>
      <point x="350" y="71" type="curve" smooth="yes"/>
      <point x="300.667" y="71"/>
      <point x="258.5" y="88.5"/>
      <point x="223.5" y="123.5" type="curve" smooth="yes"/>
      <point x="188.5" y="158.5"/>
      <point x="171" y="200.667"/>
      <point x="171" y="250" type="curve" smooth="yes"/>
      <point x="171" y="299.333"/>
      <point x="188.5" y="341.5"/>
      <point x="223.5" y="376.5" type="curve" smooth="yes"/>
      <point x="258.5" y="411.5"/>
      <point x="300.667" y="429"/>
    </contour>
    <contour>
      <point x="350" y="397" type="curve" smooth="yes"/>
      <point x="309.333" y="397"/>
      <point x="274.833" y="382.667"/>
      <point x="246.5" y="354" type="curve" smooth="yes"/>
      <point x="218.167" y="325.333"/>
      <point x="204" y="290.833"/>
      <point x="204" y="250.5" type="curve" smooth="yes"/>
      <point x="204" y="210.167"/>
      <point x="218.167" y="175.667"/>
      <point x="246.5" y="147" type="curve" smooth="yes"/>
      <point x="274.833" y="118.333"/>
      <point x="309.333" y="104"/>
      <point x="350" y="104" type="curve" smooth="yes"/>
      <point x="390.667" y="104"/>
      <point x="425.333" y="118.333"/>
      <point x="454" y="147" type="curve" smooth="yes"/>
      <point x="482.667" y="175.667"/>
      <point x="497" y="210.167"/>
      <point x="497" y="250.5" type="curve" smooth="yes"/>
      <point x="497" y="290.833"/>
      <point x="482.667" y="325.333"/>
      <point x="454" y="354" type="curve" smooth="yes"/>
      <point x="425.333" y="382.667"/>
      <point x="390.667" y="397"/>
    </contour>
    <contour>
      <point x="318" y="55" type="curve" smooth="yes"/>
      <point x="383" y="55" type="line" smooth="yes"/>
      <point x="396.333" y="55"/>
      <point x="407.667" y="50.1667"/>
      <point x="417" y="40.5" type="curve" smooth="yes"/>
      <point x="426.333" y="30.8333"/>
      <point x="431" y="19.3333"/>
      <point x="431" y="6" type="curve" smooth="yes"/>
      <point x="431" y="-189" type="line" smooth="yes"/>
      <point x="431" y="-202.333"/>
      <point x="426.333" y="-213.833"/>
      <point x="417" y="-223.5" type="curve" smooth="yes"/>
      <point x="407.667" y="-233.167"/>
      <point x="396.333" y="-238"/>
      <point x="383" y="-238" type="curve" smooth="yes"/>
      <point x="318" y="-238" type="line" smooth="yes"/>
      <point x="304" y="-238"/>
      <point x="292.333" y="-233.167"/>
      <point x="283" y="-223.5" type="curve" smooth="yes"/>
      <point x="273.667" y="-213.833"/>
      <point x="269" y="-202.333"/>
      <point x="269" y="-189" type="curve" smooth="yes"/>
      <point x="269" y="6" type="line" smooth="yes"/>
      <point x="269" y="19.3333"/>
      <point x="273.667" y="30.8333"/>
      <point x="283" y="40.5" type="curve" smooth="yes"/>
      <point x="292.333" y="50.1667"/>
      <point x="304" y="55"/>
    </contour>
    <contour>
      <point x="318" y="22" type="line" smooth="yes"/>
      <point x="313.333" y="22"/>
      <point x="309.333" y="20.5"/>
      <point x="306" y="17.5" type="curve" smooth="yes"/>
      <point x="302.667" y="14.5"/>
      <point x="301" y="10.6667"/>
      <point x="301" y="6" type="curve" smooth="yes"/>
      <point x="301" y="-189" type="line" smooth="yes"/>
      <point x="301" y="-193.667"/>
      <point x="302.667" y="-197.5"/>
      <point x="306" y="-200.5" type="curve" smooth="yes"/>
      <point x="309.333" y="-203.5"/>
      <point x="313.333" y="-205"/>
      <point x="318" y="-205" type="curve" smooth="yes"/>
      <point x="383" y="-205" type="line" smooth="yes"/>
      <point x="387.667" y="-205"/>
      <point x="391.5" y="-203.5"/>
      <point x="394.5" y="-200.5" type="curve" smooth="yes"/>
      <point x="397.5" y="-197.5"/>
      <point x="399" y="-193.667"/>
      <point x="399" y="-189" type="curve" smooth="yes"/>
      <point x="399" y="6" type="line" smooth="yes"/>
      <point x="399" y="10.6667"/>
      <point x="397.5" y="14.5"/>
      <point x="394.5" y="17.5" type="curve" smooth="yes"/>
      <point x="391.5" y="20.5"/>
      <point x="387.667" y="22"/>
      <point x="383" y="22" type="curve" smooth="yes"/>
    </contour>
    <contour>
      <point x="317" y="27" type="line"/>
      <point x="317" y="148" type="line"/>
      <point x="383" y="148" type="line"/>
      <point x="383" y="27" type="line"/>
    </contour>
  </outline>
</glyph>
<glyph name="vws" format="2">
  <advance width="700" height="700"/>
  <unicode hex="F009"/>
  <outline>
    <contour>
      <point x="90.1592" y="-26.8779" type="curve"/>
      <point x="90.1836" y="-25.1533" type="line" smooth="yes"/>
      <point x="90.1836" y="-24.9307"/>
      <point x="90.1751" y="-24.7546"/>
      <point x="90.1582" y="-24.625" type="curve" smooth="yes"/>
      <point x="90.1582" y="16.2389"/>
      <point x="100.914" y="62.3457"/>
      <point x="122.427" y="113.695" type="curve" smooth="yes"/>
      <point x="144.159" y="166.404"/>
      <point x="168.583" y="211.664"/>
      <point x="195.697" y="249.475" type="curve" smooth="yes"/>
      <point x="222.983" y="288.509"/>
      <point x="259.583" y="324.474"/>
      <point x="305.497" y="357.368" type="curve" smooth="yes"/>
      <point x="351.411" y="390.263"/>
      <point x="396.118" y="406.71"/>
      <point x="439.619" y="406.71" type="curve" smooth="yes"/>
      <point x="440.052" y="406.71" type="line" smooth="yes"/>
      <point x="490.611" y="406.71"/>
      <point x="531.548" y="386.303"/>
      <point x="562.863" y="345.489" type="curve" smooth="yes"/>
      <point x="594.178" y="304.676"/>
      <point x="609.835" y="258.871"/>
      <point x="609.835" y="208.073" type="curve" smooth="yes"/>
      <point x="609.84" y="207.438"/>
      <point x="609.842" y="206.801"/>
      <point x="609.842" y="206.162" type="curve" smooth="yes"/>
      <point x="609.842" y="167.317"/>
      <point x="601.207" y="122.39"/>
      <point x="583.938" y="71.3809" type="curve" smooth="yes"/>
      <point x="566.669" y="20.3711"/>
      <point x="546.819" y="-25.6953"/>
      <point x="524.388" y="-66.8184" type="curve" smooth="yes"/>
      <point x="501.957" y="-107.941"/>
      <point x="470.16" y="-146.169"/>
      <point x="428.996" y="-181.5" type="curve" smooth="yes"/>
      <point x="387.397" y="-217.904"/>
      <point x="345.177" y="-236.145"/>
      <point x="302.336" y="-236.223" type="curve" smooth="yes"/>
      <point x="239.279" y="-236.146"/>
      <point x="188.421" y="-217.17"/>
      <point x="149.762" y="-179.293" type="curve" smooth="yes"/>
      <point x="110.027" y="-140.874"/>
      <point x="90.1592" y="-90.0693"/>
    </contour>
    <contour>
      <point x="440.077" y="369.887" type="curve" smooth="yes"/>
      <point x="412.936" y="369.887"/>
      <point x="385.54" y="358.764"/>
      <point x="357.89" y="336.518" type="curve" smooth="yes"/>
      <point x="330.239" y="314.271"/>
      <point x="307.819" y="289.526"/>
      <point x="290.628" y="262.282" type="curve" smooth="yes"/>
      <point x="273.437" y="235.038"/>
      <point x="258.271" y="203.849"/>
      <point x="245.129" y="168.715" type="curve" smooth="yes"/>
      <point x="231.369" y="133.645"/>
      <point x="221.354" y="99.4609"/>
      <point x="215.083" y="66.1641" type="curve" smooth="yes"/>
      <point x="207.584" y="28.6471"/>
      <point x="203.835" y="-0.933268"/>
      <point x="203.835" y="-22.5771" type="curve" smooth="yes"/>
      <point x="203.835" y="-44.221"/>
      <point x="205.604" y="-63.5648"/>
      <point x="209.141" y="-80.6084" type="curve" smooth="yes"/>
      <point x="212.678" y="-97.6527"/>
      <point x="217.869" y="-114.267"/>
      <point x="224.714" y="-130.451" type="curve" smooth="yes"/>
      <point x="231.558" y="-146.635"/>
      <point x="242.004" y="-159.959"/>
      <point x="256.052" y="-170.421" type="curve" smooth="yes"/>
      <point x="270.099" y="-180.882"/>
      <point x="285.531" y="-186.113"/>
      <point x="302.348" y="-186.113" type="curve" smooth="yes"/>
      <point x="336.141" y="-186.113"/>
      <point x="370.475" y="-170.617"/>
      <point x="405.351" y="-139.623" type="curve" smooth="yes"/>
      <point x="441.765" y="-107.682"/>
      <point x="470.426" y="-73.2529"/>
      <point x="491.335" y="-36.335" type="curve" smooth="yes"/>
      <point x="512.243" y="0.582357"/>
      <point x="531.169" y="42.8499"/>
      <point x="548.111" y="90.4678" type="curve" smooth="yes"/>
      <point x="563.936" y="133.948"/>
      <point x="571.968" y="173.148"/>
      <point x="572.208" y="208.07" type="curve" smooth="yes"/>
      <point x="571.972" y="249.764"/>
      <point x="559.556" y="287.51"/>
      <point x="534.961" y="321.31" type="curve" smooth="yes"/>
      <point x="510.863" y="353.694"/>
      <point x="479.235" y="369.887"/>
    </contour>
  </outline>
</glyph>
<glyph name="anchor" format="2">
  <advance width="700" height="700"/>
  <unicode hex="F00A"/>
  <outline>
    <contour>
      <point x="349.71" y="301.984" type="curve" smooth="yes"/>
      <point x="359.581" y="301.984"/>
      <point x="368.002" y="305.467"/>
      <point x="374.972" y="312.433" type="curve" smooth="yes"/>
      <point x="381.942" y="319.402"/>
      <point x="385.429" y="327.81"/>
      <point x="385.431" y="337.655" type="curve" smooth="yes"/>
      <point x="385.432" y="347.555"/>
      <point x="381.954" y="355.983"/>
      <point x="374.997" y="362.94" type="curve" smooth="yes"/>
      <point x="368.039" y="369.897"/>
      <point x="359.646" y="373.376"/>
      <point x="349.818" y="373.376" type="curve" smooth="yes"/>
      <point x="339.97" y="373.376"/>
      <point x="331.57" y="369.893"/>
      <point x="324.618" y="362.927" type="curve" smooth="yes"/>
      <point x="317.666" y="355.961"/>
      <point x="314.19" y="347.533"/>
      <point x="314.19" y="337.643" type="curve" smooth="yes"/>
      <point x="314.19" y="327.827"/>
      <point x="317.669" y="319.43"/>
      <point x="324.627" y="312.452" type="curve" smooth="yes"/>
      <point x="331.584" y="305.474"/>
      <point x="339.945" y="301.984"/>
    </contour>
    <contour>
      <point x="449.727" y="206.252" type="line" smooth="yes"/>
      <point x="457.527" y="206.252"/>
      <point x="463.827" y="204.152"/>
      <point x="468.627" y="199.952" type="curve" smooth="yes"/>
      <point x="474.027" y="195.152"/>
      <point x="476.727" y="189.752"/>
      <point x="476.727" y="183.752" type="curve" smooth="yes"/>
      <point x="476.727" y="177.752"/>
      <point x="474.027" y="172.352"/>
      <point x="468.627" y="167.552" type="curve" smooth="yes"/>
      <point x="463.227" y="162.752"/>
      <point x="456.926" y="160.352"/>
      <point x="449.727" y="160.352" type="curve" smooth="yes"/>
      <point x="385.583" y="160.352" type="line"/>
      <point x="385.479" y="-131.267" type="line"/>
      <point x="416.911" y="-125.254"/>
      <point x="444.929" y="-111.532"/>
      <point x="469.534" y="-90.0996" type="curve" smooth="yes"/>
      <point x="494.129" y="-68.9316"/>
      <point x="511.643" y="-43.3063"/>
      <point x="522.075" y="-13.2236" type="curve"/>
      <point x="500.076" y="-5.91602" type="line" smooth="yes"/>
      <point x="498.91" y="-5.4707"/>
      <point x="496.633" y="-4.27376"/>
      <point x="493.247" y="-2.3252" type="curve" smooth="yes"/>
      <point x="486.433" y="2.92611"/>
      <point x="483.018" y="9.75521"/>
      <point x="483" y="18.1621" type="curve" smooth="yes"/>
      <point x="483.018" y="25.3555"/>
      <point x="484.648" y="30.3643"/>
      <point x="487.893" y="33.1885" type="curve" smooth="yes"/>
      <point x="488.848" y="33.9639"/>
      <point x="490.213" y="35.4255"/>
      <point x="491.987" y="37.5732" type="curve" smooth="yes"/>
      <point x="579.575" y="119.795" type="line" smooth="yes"/>
      <point x="585.409" y="125.233"/>
      <point x="591.331" y="127.816"/>
      <point x="597.342" y="127.544" type="curve" smooth="yes"/>
      <point x="603.331" y="127.816"/>
      <point x="608.382" y="125.962"/>
      <point x="612.494" y="121.981" type="curve" smooth="yes"/>
      <point x="617.184" y="117.741"/>
      <point x="619.935" y="113.091"/>
      <point x="620.747" y="108.032" type="curve" smooth="yes"/>
      <point x="639.76" y="-10.458" type="line" smooth="yes"/>
      <point x="640.271" y="-13.585"/>
      <point x="640.492" y="-15.5124"/>
      <point x="640.422" y="-16.2402" type="curve" smooth="yes"/>
      <point x="640.492" y="-23.3118"/>
      <point x="638.009" y="-29.3561"/>
      <point x="632.975" y="-34.373" type="curve" smooth="yes"/>
      <point x="628.41" y="-38.9564"/>
      <point x="622.425" y="-41.4362"/>
      <point x="615.021" y="-41.8125" type="curve" smooth="yes"/>
      <point x="612.916" y="-42.0267"/>
      <point x="610.404" y="-41.6488"/>
      <point x="607.485" y="-40.6787" type="curve" smooth="yes"/>
      <point x="586.946" y="-33.8496" type="line"/>
      <point x="570.466" y="-84.3822"/>
      <point x="540.477" y="-125.602"/>
      <point x="496.977" y="-157.509" type="curve" smooth="yes"/>
      <point x="453.477" y="-189.201"/>
      <point x="404.479" y="-205.192"/>
      <point x="349.984" y="-205.48" type="curve" smooth="yes"/>
      <point x="295.279" y="-205.192"/>
      <point x="246.296" y="-189.213"/>
      <point x="203.035" y="-157.544" type="curve" smooth="yes"/>
      <point x="159.896" y="-125.614"/>
      <point x="129.9" y="-84.4349"/>
      <point x="113.049" y="-34.0078" type="curve"/>
      <point x="92.4473" y="-40.6982" type="line" smooth="yes"/>
      <point x="79.8333" y="-44.665"/>
      <point x="70.4512" y="-42.5482"/>
      <point x="64.3008" y="-34.3477" type="curve" smooth="yes"/>
      <point x="60.0306" y="-27.8099"/>
      <point x="58.6481" y="-19.8467"/>
      <point x="60.1533" y="-10.458" type="curve" smooth="yes"/>
      <point x="79.1484" y="108.032" type="line" smooth="yes"/>
      <point x="80.2005" y="113.512"/>
      <point x="82.9447" y="118.159"/>
      <point x="87.3809" y="121.973" type="curve" smooth="yes"/>
      <point x="91.9447" y="125.959"/>
      <point x="97.0544" y="127.814"/>
      <point x="102.71" y="127.537" type="curve" smooth="yes"/>
      <point x="108.619" y="127.822"/>
      <point x="114.495" y="125.224"/>
      <point x="120.338" y="119.745" type="curve" smooth="yes"/>
      <point x="207.957" y="37.5732" type="line" smooth="yes"/>
      <point x="210.137" y="35.4255"/>
      <point x="211.485" y="33.9616"/>
      <point x="212.003" y="33.1816" type="curve" smooth="yes"/>
      <point x="216.285" y="27.362"/>
      <point x="217.863" y="21.0892"/>
      <point x="216.734" y="14.3633" type="curve" smooth="yes"/>
      <point x="215.462" y="6.08919"/>
      <point x="212.121" y="0.526367"/>
      <point x="206.711" y="-2.3252" type="curve" smooth="yes"/>
      <point x="200.121" y="-5.47363"/>
      <point x="190.438" y="-9.11035"/>
      <point x="177.661" y="-13.2354" type="curve"/>
      <point x="188.638" y="-43.9105"/>
      <point x="206.678" y="-69.8757"/>
      <point x="231.78" y="-91.1309" type="curve" smooth="yes"/>
      <point x="257.078" y="-112.476"/>
      <point x="285.868" y="-126.058"/>
      <point x="318.15" y="-131.877" type="curve"/>
      <point x="318.047" y="160.352" type="line"/>
      <point x="249.927" y="160.352" type="line" smooth="yes"/>
      <point x="242.727" y="160.352"/>
      <point x="236.427" y="162.752"/>
      <point x="231.026" y="167.552" type="curve" smooth="yes"/>
      <point x="225.627" y="172.352"/>
      <point x="222.927" y="177.752"/>
      <point x="222.927" y="183.752" type="curve" smooth="yes"/>
      <point x="222.927" y="189.752"/>
      <point x="225.627" y="195.152"/>
      <point x="231.026" y="199.952" type="curve" smooth="yes"/>
      <point x="235.826" y="204.152"/>
      <point x="242.127" y="206.252"/>
      <point x="249.927" y="206.252" type="curve" smooth="yes"/>
      <point x="318.031" y="206.252" type="line"/>
      <point x="318.013" y="257.696" type="line"/>
      <point x="302.022" y="264.2"/>
      <point x="289.18" y="274.813"/>
      <point x="279.487" y="289.536" type="curve" smooth="yes"/>
      <point x="269.38" y="304.213"/>
      <point x="264.441" y="320.249"/>
      <point x="264.67" y="337.643" type="curve" smooth="yes"/>
      <point x="264.441" y="361.649"/>
      <point x="272.924" y="382.131"/>
      <point x="290.121" y="399.087" type="curve" smooth="yes"/>
      <point x="307.125" y="416.33"/>
      <point x="327.579" y="424.808"/>
      <point x="351.484" y="424.52" type="curve" smooth="yes"/>
      <point x="375.579" y="424.808"/>
      <point x="396.063" y="416.336"/>
      <point x="412.936" y="399.104" type="curve" smooth="yes"/>
      <point x="429.663" y="382.136"/>
      <point x="438.134" y="361.653"/>
      <point x="438.349" y="337.655" type="curve" smooth="yes"/>
      <point x="438.134" y="319.653"/>
      <point x="433.293" y="303.568"/>
      <point x="423.827" y="289.4" type="curve" smooth="yes"/>
      <point x="414.093" y="274.768"/>
      <point x="401.357" y="264.2"/>
      <point x="385.617" y="257.696" type="curve"/>
      <point x="385.6" y="206.252" type="line"/>
    </contour>
  </outline>
</glyph>
<glyph name="openeye" format="2">
  <advance width="700" height="700"/>
  <unicode hex="F00C"/>
  <outline>
    <contour>
      <point x="664.438" y="81.4902" type="curve" smooth="yes"/>
      <point x="668.069" y="76" type="line"/>
      <point x="664.443" y="70.5605" type="line" smooth="yes"/>
      <point x="629.427" y="17.4707"/>
      <point x="584.125" y="-24.0618"/>
      <point x="528.538" y="-54.0371" type="curve" smooth="yes"/>
      <point x="472.951" y="-84.0124"/>
      <point x="413.45" y="-99"/>
      <point x="350.035" y="-99" type="curve" smooth="yes"/>
      <point x="286.61" y="-99"/>
      <point x="227.098" y="-84.0143"/>
      <point x="171.498" y="-54.043" type="curve" smooth="yes"/>
      <point x="115.898" y="-24.0716"/>
      <point x="70.584" y="17.4525"/>
      <point x="35.5566" y="70.5293" type="curve" smooth="yes"/>
      <point x="31.9307" y="76" type="line"/>
      <point x="35.5566" y="81.4902" type="line" smooth="yes"/>
      <point x="70.6178" y="134.561"/>
      <point x="115.947" y="176.08"/>
      <point x="171.544" y="206.048" type="curve" smooth="yes"/>
      <point x="227.14" y="236.016"/>
      <point x="286.639" y="251"/>
      <point x="350.041" y="251" type="curve" smooth="yes"/>
      <point x="413.451" y="251"/>
      <point x="472.948" y="236.016"/>
      <point x="528.532" y="206.047" type="curve" smooth="yes"/>
      <point x="584.116" y="176.078"/>
      <point x="629.418" y="134.559"/>
    </contour>
    <contour>
      <point x="70.3145" y="76" type="curve"/>
      <point x="96.306" y="39.9922"/>
      <point x="127.83" y="10.2018"/>
      <point x="164.888" y="-13.3711" type="curve" smooth="yes"/>
      <point x="201.944" y="-36.9427"/>
      <point x="242.029" y="-52.8438"/>
      <point x="285.143" y="-61.0742" type="curve"/>
      <point x="269.71" y="-53.612"/>
      <point x="255.917" y="-43.8366"/>
      <point x="243.763" y="-31.748" type="curve" smooth="yes"/>
      <point x="229.646" y="-17.7181"/>
      <point x="218.647" y="-1.42383"/>
      <point x="210.765" y="17.1348" type="curve" smooth="yes"/>
      <point x="202.882" y="35.694"/>
      <point x="198.94" y="55.3118"/>
      <point x="198.94" y="75.9883" type="curve" smooth="yes"/>
      <point x="198.94" y="76.1914"/>
      <point x="198.94" y="76.1914"/>
      <point x="198.94" y="76.3945" type="curve" smooth="yes"/>
      <point x="198.94" y="96.8027"/>
      <point x="202.799" y="116.312"/>
      <point x="210.515" y="134.923" type="curve" smooth="yes"/>
      <point x="218.231" y="153.534"/>
      <point x="229.313" y="170.059"/>
      <point x="243.763" y="184.499" type="curve" smooth="yes"/>
      <point x="255.233" y="195.939"/>
      <point x="268.197" y="205.312"/>
      <point x="282.655" y="212.616" type="curve"/>
      <point x="240.034" y="204.153"/>
      <point x="200.424" y="188.183"/>
      <point x="163.823" y="164.708" type="curve" smooth="yes"/>
      <point x="127.223" y="141.233"/>
      <point x="96.0534" y="111.664"/>
    </contour>
    <contour>
      <point x="351.612" y="-18.3135" type="curve" smooth="yes"/>
      <point x="351.647" y="-18.262"/>
      <point x="351.689" y="-18.2389"/>
      <point x="351.736" y="-18.2441" type="curve" smooth="yes"/>
      <point x="377.796" y="-18.2487"/>
      <point x="400.011" y="-9.03711"/>
      <point x="418.381" y="9.39062" type="curve" smooth="yes"/>
      <point x="436.786" y="27.8092"/>
      <point x="445.989" y="50.057"/>
      <point x="445.989" y="76.1338" type="curve" smooth="yes"/>
      <point x="445.989" y="76.1579"/>
      <point x="445.992" y="76.195"/>
      <point x="445.996" y="76.2451" type="curve" smooth="yes"/>
      <point x="446.001" y="102.3"/>
      <point x="436.789" y="124.507"/>
      <point x="418.362" y="142.864" type="curve" smooth="yes"/>
      <point x="399.91" y="161.269"/>
      <point x="377.659" y="170.472"/>
      <point x="351.606" y="170.472" type="curve" smooth="yes"/>
      <point x="351.435" y="170.481"/>
      <point x="351.332" y="170.486"/>
      <point x="351.298" y="170.486" type="curve" smooth="yes"/>
      <point x="325.33" y="170.486"/>
      <point x="303.177" y="161.272"/>
      <point x="284.838" y="142.845" type="curve" smooth="yes"/>
      <point x="266.432" y="124.34"/>
      <point x="257.229" y="102.088"/>
      <point x="257.229" y="76.0889" type="curve" smooth="yes"/>
      <point x="257.229" y="50.0654"/>
      <point x="266.452" y="27.8258"/>
      <point x="284.897" y="9.37012" type="curve" smooth="yes"/>
      <point x="303.343" y="-9.08561"/>
      <point x="325.581" y="-18.3135"/>
    </contour>
    <contour>
      <point x="420.977" y="-59.9346" type="curve"/>
      <point x="462.878" y="-51.1481"/>
      <point x="501.799" y="-35.085"/>
      <point x="537.739" y="-11.7451" type="curve" smooth="yes"/>
      <point x="573.68" y="11.5947"/>
      <point x="604.335" y="40.8431"/>
      <point x="629.704" y="76" type="curve"/>
      <point x="604.549" y="110.891"/>
      <point x="574.177" y="139.975"/>
      <point x="538.591" y="163.252" type="curve" smooth="yes"/>
      <point x="503.004" y="186.529"/>
      <point x="464.465" y="202.655"/>
      <point x="422.974" y="211.63" type="curve"/>
      <point x="447.672" y="198.604"/>
      <point x="467.477" y="180.025"/>
      <point x="482.388" y="155.891" type="curve" smooth="yes"/>
      <point x="497.299" y="131.757"/>
      <point x="504.755" y="105.277"/>
      <point x="504.755" y="76.4512" type="curve" smooth="yes"/>
      <point x="504.771" y="76.2266"/>
      <point x="504.778" y="76.0924"/>
      <point x="504.778" y="76.0488" type="curve" smooth="yes"/>
      <point x="504.778" y="55.3789"/>
      <point x="500.838" y="35.7656"/>
      <point x="492.957" y="17.209" type="curve" smooth="yes"/>
      <point x="485.076" y="-1.34766"/>
      <point x="474.081" y="-17.6478"/>
      <point x="459.972" y="-31.6914" type="curve" smooth="yes"/>
      <point x="448.477" y="-43.1823"/>
      <point x="435.479" y="-52.5967"/>
    </contour>
    <contour>
      <point x="318.826" y="70.7842" type="curve" smooth="yes"/>
      <point x="310.186" y="70.7842"/>
      <point x="302.833" y="73.8118"/>
      <point x="296.766" y="79.8672" type="curve" smooth="yes"/>
      <point x="290.699" y="85.9225"/>
      <point x="287.645" y="93.2956"/>
      <point x="287.604" y="101.986" type="curve" smooth="yes"/>
      <point x="287.645" y="110.562"/>
      <point x="290.698" y="117.904"/>
      <point x="296.763" y="124.013" type="curve" smooth="yes"/>
      <point x="302.828" y="130.121"/>
      <point x="310.18" y="133.176"/>
      <point x="318.82" y="133.176" type="curve" smooth="yes"/>
      <point x="327.447" y="133.176"/>
      <point x="334.795" y="130.121"/>
      <point x="340.862" y="124.013" type="curve" smooth="yes"/>
      <point x="346.931" y="117.904"/>
      <point x="349.994" y="110.555"/>
      <point x="350.054" y="101.967" type="curve" smooth="yes"/>
      <point x="349.994" y="93.2891"/>
      <point x="346.935" y="85.9225"/>
      <point x="340.876" y="79.8672" type="curve" smooth="yes"/>
      <point x="334.816" y="73.8118"/>
      <point x="327.466" y="70.7842"/>
    </contour>
  </outline>
</glyph>
<glyph name="closedeye" format="2">
  <advance width="700" height="700"/>
  <unicode hex="F00D"/>
  <outline>
    <contour>
      <point x="697.695" y="116" type="line"/>
      <point x="697.695" y="79" type="line"/>
      <point x="641.157" y="79" type="line"/>
      <point x="616.071" y="48.2467"/>
      <point x="587.148" y="22.3021"/>
      <point x="554.388" y="1.16602" type="curve"/>
      <point x="590.514" y="-34.96" type="line"/>
      <point x="564.351" y="-61.123" type="line"/>
      <point x="521.182" y="-17.9551" type="line"/>
      <point x="473.385" y="-42.4499"/>
      <point x="422.622" y="-55.9811"/>
      <point x="368.891" y="-58.5488" type="curve"/>
      <point x="368.891" y="-118" type="line"/>
      <point x="331.891" y="-118" type="line"/>
      <point x="331.891" y="-58.5889" type="line"/>
      <point x="278.292" y="-56.1273"/>
      <point x="227.506" y="-42.6048"/>
      <point x="179.531" y="-18.0215" type="curve"/>
      <point x="136.43" y="-61.123" type="line"/>
      <point x="110.268" y="-34.96" type="line"/>
      <point x="146.381" y="1.15332" type="line"/>
      <point x="113.021" y="22.6826"/>
      <point x="83.8607" y="48.6315"/>
      <point x="58.9004" y="79" type="curve"/>
      <point x="2.30469" y="79" type="line"/>
      <point x="2.30469" y="116" type="line"/>
      <point x="70.3047" y="116" type="line"/>
      <point x="96.0286" y="80"/>
      <point x="128.057" y="49.8333"/>
      <point x="166.391" y="25.5" type="curve" smooth="yes"/>
      <point x="204.724" y="1.16667"/>
      <point x="244.305" y="-14.3581"/>
      <point x="285.133" y="-21.0742" type="curve" smooth="yes"/>
      <point x="304.971" y="-24.3581"/>
      <point x="326.891" y="-26"/>
      <point x="350.891" y="-26" type="curve" smooth="yes"/>
      <point x="376.891" y="-26"/>
      <point x="400.25" y="-23.9782"/>
      <point x="420.968" y="-19.9346" type="curve" smooth="yes"/>
      <point x="465.583" y="-9.97819"/>
      <point x="504.504" y="6.08496"/>
      <point x="537.73" y="28.2549" type="curve" smooth="yes"/>
      <point x="573.837" y="51.4183"/>
      <point x="604.492" y="80.6667"/>
      <point x="629.695" y="116" type="curve"/>
    </contour>
  </outline>
</glyph>
<glyph name="minus" format="2">
  <advance width="576" height="576"/>
  <unicode hex="F00E"/>
  <outline>
    <contour>
      <point x="474.25" y="79.75" type="line"/>
      <point x="474.25" y="132.25" type="line"/>
      <point x="101.75" y="132.25" type="line"/>
      <point x="101.75" y="79.75" type="line"/>
    </contour>
  </outline>
</glyph>
<glyph name="left" format="2">
  <advance width="576" height="576"/>
  <unicode hex="F010"/>
  <outline>
    <contour>
      <point x="501.75" y="132.25" type="line"/>
      <point x="501.75" y="79.75" type="line"/>
      <point x="176.75" y="79.75" type="line"/>
      <point x="325.5" y="-70.25" type="line"/>
      <point x="288" y="-107.75" type="line"/>
      <point x="74.25" y="106" type="line"/>
      <point x="288" y="319.75" type="line"/>
      <point x="325.5" y="282.25" type="line"/>
      <point x="176.75" y="132.25" type="line"/>
    </contour>
  </outline>
</glyph>
<glyph name="up" format="2">
  <advance width="576" height="576"/>
  <unicode hex="F012"/>
  <outline>
    <contour>
      <point x="74.25" y="106" type="line"/>
      <point x="288" y="319.75" type="line"/>
      <point x="501.75" y="106" type="line"/>
      <point x="463" y="68.5" type="line"/>
      <point x="314.25" y="217.25" type="line"/>
      <point x="314.25" y="-107.75" type="line"/>
      <point x="261.75" y="-107.75" type="line"/>
      <point x="261.75" y="217.25" type="line"/>
      <point x="111.75" y="68.5" type="line"/>
    </contour>
  </outline>
</glyph>
<glyph name="right" format="2">
  <advance width="576" height="576"/>
  <unicode hex="F014"/>
  <outline>
    <contour>
      <point x="288" y="319.75" type="line"/>
      <point x="501.75" y="106" type="line"/>
      <point x="288" y="-107.75" type="line"/>
      <point x="250.5" y="-70.25" type="line"/>
      <point x="399.25" y="79.75" type="line"/>
      <point x="74.25" y="79.75" type="line"/>
      <point x="74.25" y="132.25" type="line"/>
      <point x="399.25" y="132.25" type="line"/>
      <point x="250.5" y="282.25" type="line"/>
    </contour>
  </outline>
</glyph>
<glyph name="rename" format="2">
  <advance width="789" height="789"/>
  <unicode hex="F015"/>
  <outline>
    <contour>
      <point x="245.945" y="-5.15527" type="line"/>
      <point x="146.702" y="-5.15527" type="line"/>
      <point x="130.955" y="-54.96" type="line"/>
      <point x="67.2344" y="-54.96" type="line"/>
      <point x="158.421" y="218.416" type="line"/>
      <point x="234.043" y="218.416" type="line"/>
      <point x="325.23" y="-54.96" type="line"/>
      <point x="261.326" y="-54.96" type="line"/>
    </contour>
    <contour>
      <point x="162.449" y="45.5645" type="line"/>
      <point x="229.832" y="45.5645" type="line"/>
      <point x="196.324" y="154.329" type="line"/>
    </contour>
    <contour>
      <point x="442.112" y="-12.6631" type="curve" smooth="yes"/>
      <point x="454.808" y="-12.6631"/>
      <point x="464.482" y="-7.53613"/>
      <point x="471.135" y="2.71777" type="curve" smooth="yes"/>
      <point x="477.787" y="12.9717"/>
      <point x="481.113" y="27.8643"/>
      <point x="481.113" y="47.3955" type="curve" smooth="yes"/>
      <point x="481.113" y="66.9268"/>
      <point x="477.787" y="81.8193"/>
      <point x="471.135" y="92.0732" type="curve" smooth="yes"/>
      <point x="464.482" y="102.327"/>
      <point x="454.808" y="107.454"/>
      <point x="442.112" y="107.454" type="curve" smooth="yes"/>
      <point x="429.539" y="107.454"/>
      <point x="419.865" y="102.297"/>
      <point x="413.09" y="91.9824" type="curve" smooth="yes"/>
      <point x="406.315" y="81.6673"/>
      <point x="402.928" y="66.805"/>
      <point x="402.928" y="47.3955" type="curve" smooth="yes"/>
      <point x="402.928" y="27.9867"/>
      <point x="406.315" y="13.1247"/>
      <point x="413.09" y="2.80957" type="curve" smooth="yes"/>
      <point x="419.865" y="-7.50553"/>
      <point x="429.539" y="-12.6631"/>
    </contour>
    <contour>
      <point x="402.928" y="120.089" type="line"/>
      <point x="411.106" y="132.052"/>
      <point x="420.139" y="140.871"/>
      <point x="430.027" y="146.547" type="curve" smooth="yes"/>
      <point x="439.915" y="152.223"/>
      <point x="451.268" y="155.062"/>
      <point x="464.085" y="155.062" type="curve" smooth="yes"/>
      <point x="486.79" y="155.062"/>
      <point x="505.467" y="145.021"/>
      <point x="520.115" y="124.941" type="curve" smooth="yes"/>
      <point x="534.764" y="104.861"/>
      <point x="542.088" y="79.012"/>
      <point x="542.088" y="47.3955" type="curve" smooth="yes"/>
      <point x="542.088" y="15.7796"/>
      <point x="534.764" y="-10.0687"/>
      <point x="520.115" y="-30.1494" type="curve" smooth="yes"/>
      <point x="505.467" y="-50.2301"/>
      <point x="486.79" y="-60.2705"/>
      <point x="464.085" y="-60.2705" type="curve" smooth="yes"/>
      <point x="451.268" y="-60.2705"/>
      <point x="439.915" y="-57.4323"/>
      <point x="430.027" y="-51.7559" type="curve" smooth="yes"/>
      <point x="420.139" y="-46.0794"/>
      <point x="411.106" y="-37.2598"/>
      <point x="402.928" y="-25.2969" type="curve"/>
      <point x="402.928" y="-54.96" type="line"/>
      <point x="343.968" y="-54.96" type="line"/>
      <point x="343.968" y="229.952" type="line"/>
      <point x="402.928" y="229.952" type="line"/>
    </contour>
    <contour>
      <point x="721.766" y="143.709" type="curve"/>
      <point x="721.766" y="90.2422" type="line"/>
      <point x="713.479" y="95.9408"/>
      <point x="705.453" y="100.457"/>
      <point x="697.688" y="103.792" type="curve" smooth="yes"/>
      <point x="689.62" y="107.124"/>
      <point x="681.227" y="108.589"/>
      <point x="672.51" y="108.187" type="curve" smooth="yes"/>
      <point x="656.227" y="108.589"/>
      <point x="643.41" y="103.248"/>
      <point x="634.059" y="92.165" type="curve" smooth="yes"/>
      <point x="625.077" y="81.5817"/>
      <point x="620.499" y="66.6585"/>
      <point x="620.325" y="47.3955" type="curve" smooth="yes"/>
      <point x="620.499" y="28.3252"/>
      <point x="625.077" y="13.4023"/>
      <point x="634.059" y="2.62695" type="curve" smooth="yes"/>
      <point x="643.41" y="-8.26432"/>
      <point x="656.227" y="-13.6051"/>
      <point x="672.51" y="-13.3955" type="curve" smooth="yes"/>
      <point x="682.061" y="-13.6051"/>
      <point x="690.85" y="-12.0791"/>
      <point x="698.877" y="-8.81738" type="curve" smooth="yes"/>
      <point x="707.516" y="-5.41243"/>
      <point x="715.146" y="-0.895833"/>
      <point x="721.766" y="4.73242" type="curve"/>
      <point x="721.766" y="-48.918" type="line"/>
      <point x="712.646" y="-52.946"/>
      <point x="703.307" y="-55.7839"/>
      <point x="693.75" y="-57.4316" type="curve" smooth="yes"/>
      <point x="684.141" y="-59.1172"/>
      <point x="674.619" y="-60.0635"/>
      <point x="665.186" y="-60.2705" type="curve" smooth="yes"/>
      <point x="632.119" y="-60.0635"/>
      <point x="606.057" y="-50.5723"/>
      <point x="587" y="-31.7969" type="curve" smooth="yes"/>
      <point x="568.557" y="-13.0723"/>
      <point x="559.158" y="13.3252"/>
      <point x="558.802" y="47.3955" type="curve" smooth="yes"/>
      <point x="559.158" y="80.8252"/>
      <point x="568.557" y="107.223"/>
      <point x="587" y="126.589" type="curve" smooth="yes"/>
      <point x="606.057" y="145.556"/>
      <point x="632.119" y="155.047"/>
      <point x="665.186" y="155.062" type="curve" smooth="yes"/>
      <point x="674.619" y="155.047"/>
      <point x="684.141" y="154.101"/>
      <point x="693.75" y="152.224" type="curve" smooth="yes"/>
      <point x="703.307" y="149.935"/>
      <point x="712.646" y="147.096"/>
    </contour>
  </outline>
</glyph>
<glyph name="intersection" format="2">
  <advance width="700" height="700"/>
  <unicode hex="F019"/>
  <outline>
    <contour>
      <point x="94.7617" y="73.4258" type="curve" smooth="yes"/>
      <point x="94.7617" y="94.319"/>
      <point x="98.832" y="114.283"/>
      <point x="106.973" y="133.318" type="curve" smooth="yes"/>
      <point x="115.113" y="152.353"/>
      <point x="126.065" y="168.758"/>
      <point x="139.828" y="182.533" type="curve" smooth="yes"/>
      <point x="153.591" y="196.308"/>
      <point x="169.995" y="207.271"/>
      <point x="189.041" y="215.424" type="curve" smooth="yes"/>
      <point x="208.085" y="223.577"/>
      <point x="228.068" y="227.653"/>
      <point x="248.99" y="227.653" type="curve" smooth="yes"/>
      <point x="274.777" y="227.653"/>
      <point x="299.025" y="221.576"/>
      <point x="321.736" y="209.422" type="curve"/>
      <point x="303.39" y="191.999"/>
      <point x="289.077" y="171.552"/>
      <point x="278.797" y="148.082" type="curve" smooth="yes"/>
      <point x="268.516" y="124.612"/>
      <point x="263.375" y="99.7266"/>
      <point x="263.375" y="73.4258" type="curve" smooth="yes"/>
      <point x="263.375" y="47.125"/>
      <point x="268.516" y="22.2396"/>
      <point x="278.797" y="-1.23047" type="curve" smooth="yes"/>
      <point x="289.078" y="-24.7005"/>
      <point x="303.392" y="-45.1468"/>
      <point x="321.738" y="-62.5693" type="curve"/>
      <point x="299.027" y="-74.7236"/>
      <point x="274.778" y="-80.8008"/>
      <point x="248.99" y="-80.8008" type="curve" smooth="yes"/>
      <point x="228.087" y="-80.8008"/>
      <point x="208.116" y="-76.7269"/>
      <point x="189.076" y="-68.5791" type="curve" smooth="yes"/>
      <point x="170.037" y="-60.4313"/>
      <point x="153.632" y="-49.4723"/>
      <point x="139.862" y="-35.7021" type="curve" smooth="yes"/>
      <point x="126.092" y="-21.932"/>
      <point x="115.133" y="-5.52734"/>
      <point x="106.984" y="13.5117" type="curve" smooth="yes"/>
      <point x="98.8359" y="32.5508"/>
      <point x="94.7617" y="52.5221"/>
    </contour>
    <contour>
      <point x="605.238" y="73.4258" type="curve" smooth="yes"/>
      <point x="605.238" y="52.5039"/>
      <point x="601.167" y="32.5228"/>
      <point x="593.025" y="13.4824" type="curve" smooth="yes"/>
      <point x="584.883" y="-5.55924"/>
      <point x="573.93" y="-21.9632"/>
      <point x="560.164" y="-35.7295" type="curve" smooth="yes"/>
      <point x="546.397" y="-49.4958"/>
      <point x="529.993" y="-60.4499"/>
      <point x="510.952" y="-68.5918" type="curve" smooth="yes"/>
      <point x="491.911" y="-76.7337"/>
      <point x="471.93" y="-80.8047"/>
      <point x="451.008" y="-80.8047" type="curve" smooth="yes"/>
      <point x="425.262" y="-80.8047"/>
      <point x="401.016" y="-74.7253"/>
      <point x="378.27" y="-62.5664" type="curve"/>
      <point x="396.844" y="-44.9154"/>
      <point x="411.213" y="-24.2871"/>
      <point x="421.378" y="-0.681641" type="curve" smooth="yes"/>
      <point x="431.543" y="22.9232"/>
      <point x="436.625" y="47.6257"/>
      <point x="436.625" y="73.4258" type="curve" smooth="yes"/>
      <point x="436.625" y="99.2246"/>
      <point x="431.543" y="123.926"/>
      <point x="421.378" y="147.531" type="curve" smooth="yes"/>
      <point x="411.213" y="171.137"/>
      <point x="396.844" y="191.765"/>
      <point x="378.27" y="209.416" type="curve"/>
      <point x="401.014" y="221.574"/>
      <point x="425.261" y="227.653"/>
      <point x="451.01" y="227.653" type="curve" smooth="yes"/>
      <point x="471.93" y="227.653"/>
      <point x="491.911" y="223.583"/>
      <point x="510.953" y="215.441" type="curve" smooth="yes"/>
      <point x="529.993" y="207.299"/>
      <point x="546.397" y="196.345"/>
      <point x="560.164" y="182.579" type="curve" smooth="yes"/>
      <point x="573.93" y="168.813"/>
      <point x="584.883" y="152.409"/>
      <point x="593.025" y="133.368" type="curve" smooth="yes"/>
      <point x="601.167" y="114.327"/>
      <point x="605.238" y="94.3464"/>
    </contour>
    <contour>
      <point x="346.163" y="-39.7168" type="curve" smooth="yes"/>
      <point x="346.559" y="-32.7396"/>
      <point x="346.955" y="-24.4092"/>
      <point x="347.352" y="-14.7256" type="curve" smooth="yes"/>
      <point x="348.417" y="11.2542"/>
      <point x="349.155" y="39.1546"/>
      <point x="349.565" y="68.9756" type="curve" smooth="yes"/>
      <point x="349.816" y="87.2197"/>
      <point x="349.941" y="108.825"/>
      <point x="349.941" y="133.79" type="curve"/>
      <point x="350.837" y="102.89"/>
      <point x="351.349" y="82.4495"/>
      <point x="351.477" y="72.4678" type="curve" smooth="yes"/>
      <point x="351.651" y="58.8076"/>
      <point x="351.764" y="39.4225"/>
      <point x="351.814" y="14.3125" type="curve" smooth="yes"/>
      <point x="351.865" y="-10.7975"/>
      <point x="351.954" y="-28.8958"/>
      <point x="352.082" y="-39.9824" type="curve" smooth="yes"/>
      <point x="352.087" y="-40.4323"/>
      <point x="352.092" y="-40.8747"/>
      <point x="352.098" y="-41.3096" type="curve" smooth="yes"/>
      <point x="351.408" y="-41.9274"/>
      <point x="350.711" y="-42.5397"/>
      <point x="350.007" y="-43.1465" type="curve" smooth="yes"/>
      <point x="348.704" y="-42.0228"/>
      <point x="347.423" y="-40.8796"/>
    </contour>
    <contour>
      <point x="337.922" y="-31.5059" type="curve"/>
      <point x="336.208" y="-29.6608"/>
      <point x="334.54" y="-27.7741"/>
      <point x="332.918" y="-25.8457" type="curve" smooth="yes"/>
      <point x="334.042" y="-5.42904"/>
      <point x="334.928" y="24.7741"/>
      <point x="335.574" y="64.7637" type="curve" smooth="yes"/>
      <point x="335.85" y="81.8991"/>
      <point x="336.033" y="103.658"/>
      <point x="336.121" y="130.041" type="curve"/>
      <point x="336.766" y="108.541"/>
      <point x="337.219" y="86.5498"/>
      <point x="337.482" y="64.0674" type="curve" smooth="yes"/>
      <point x="337.667" y="48.2594"/>
      <point x="337.785" y="25.5293"/>
      <point x="337.836" y="-4.12305" type="curve" smooth="yes"/>
      <point x="337.854" y="-14.9486"/>
      <point x="337.883" y="-24.0762"/>
    </contour>
    <contour>
      <point x="324.042" y="-14.1934" type="curve"/>
      <point x="322.506" y="-11.9635"/>
      <point x="321.022" y="-9.68587"/>
      <point x="319.592" y="-7.36035" type="curve" smooth="yes"/>
      <point x="320.381" y="9.84928"/>
      <point x="321.045" y="32.9896"/>
      <point x="321.584" y="62.0605" type="curve" smooth="yes"/>
      <point x="321.854" y="76.5723"/>
      <point x="322.079" y="96.0788"/>
      <point x="322.26" y="120.58" type="curve"/>
      <point x="323.139" y="91.2741"/>
      <point x="323.691" y="53.2799"/>
      <point x="323.918" y="6.59766" type="curve" smooth="yes"/>
      <point x="323.956" y="-1.22721"/>
      <point x="323.998" y="-8.15755"/>
    </contour>
    <contour>
      <point x="309.956" y="10.8096" type="curve"/>
      <point x="308.457" y="14.1481"/>
      <point x="307.085" y="17.5247"/>
      <point x="305.842" y="20.9395" type="curve" smooth="yes"/>
      <point x="305.921" y="22.3737"/>
      <point x="306" y="23.8757"/>
      <point x="306.078" y="25.4453" type="curve" smooth="yes"/>
      <point x="306.967" y="43.3346"/>
      <point x="307.702" y="70.3496"/>
      <point x="308.281" y="106.49" type="curve"/>
      <point x="308.923" y="85.3965"/>
      <point x="309.328" y="69.1536"/>
      <point x="309.496" y="57.7617" type="curve" smooth="yes"/>
      <point x="309.564" y="53.1387"/>
      <point x="309.694" y="39.9577"/>
      <point x="309.887" y="18.2188" type="curve" smooth="yes"/>
      <point x="309.91" y="15.6589"/>
      <point x="309.933" y="13.1891"/>
    </contour>
    <contour>
      <point x="299.463" y="102.656" type="curve" smooth="yes"/>
      <point x="300.439" y="107.831"/>
      <point x="301.682" y="112.925"/>
      <point x="303.191" y="117.94" type="curve"/>
      <point x="302.907" y="107.237"/>
      <point x="302.534" y="92.0319"/>
      <point x="302.072" y="72.3262" type="curve" smooth="yes"/>
      <point x="302.016" y="69.8913"/>
      <point x="301.798" y="66.3483"/>
      <point x="301.42" y="61.6973" type="curve" smooth="yes"/>
      <point x="301.042" y="57.0462"/>
      <point x="300.823" y="53.64"/>
      <point x="300.761" y="51.4785" type="curve"/>
      <point x="300.347" y="71.9225"/>
      <point x="299.915" y="88.9818"/>
    </contour>
    <contour>
      <point x="311.703" y="139.8" type="curve" smooth="yes"/>
      <point x="312.341" y="141.124"/>
      <point x="313" y="142.442"/>
      <point x="313.68" y="143.754" type="curve" smooth="yes"/>
      <point x="314.868" y="146.049"/>
      <point x="316.103" y="148.304"/>
      <point x="317.383" y="150.517" type="curve"/>
      <point x="317.133" y="140.506"/>
      <point x="316.884" y="125.929"/>
      <point x="316.636" y="106.787" type="curve" smooth="yes"/>
      <point x="316.316" y="82.2402"/>
      <point x="316.119" y="67.9342"/>
      <point x="316.046" y="63.8691" type="curve" smooth="yes"/>
      <point x="315.965" y="59.4186"/>
      <point x="315.48" y="42.7979"/>
      <point x="314.592" y="14.0068" type="curve"/>
      <point x="314.437" y="33.9346"/>
      <point x="314.281" y="49.0964"/>
      <point x="314.125" y="59.4922" type="curve" smooth="yes"/>
      <point x="313.546" y="98.0514"/>
      <point x="312.738" y="124.821"/>
    </contour>
    <contour>
      <point x="325.166" y="162.657" type="curve" smooth="yes"/>
      <point x="327.114" y="165.409"/>
      <point x="329.144" y="168.086"/>
      <point x="331.257" y="170.688" type="curve"/>
      <point x="331.052" y="161.468"/>
      <point x="330.851" y="145.359"/>
      <point x="330.654" y="122.359" type="curve" smooth="yes"/>
      <point x="330.243" y="74.4277"/>
      <point x="329.541" y="34.7461"/>
      <point x="328.547" y="3.31445" type="curve"/>
      <point x="328.449" y="29.6491"/>
      <point x="328.307" y="49.8307"/>
      <point x="328.121" y="63.8594" type="curve" smooth="yes"/>
      <point x="327.48" y="112.196"/>
      <point x="326.495" y="145.129"/>
    </contour>
    <contour>
      <point x="338.698" y="179.188" type="curve" smooth="yes"/>
      <point x="340.685" y="181.295"/>
      <point x="342.734" y="183.345"/>
      <point x="344.844" y="185.341" type="curve"/>
      <point x="344.714" y="175.763"/>
      <point x="344.608" y="160.796"/>
      <point x="344.527" y="140.441" type="curve" smooth="yes"/>
      <point x="344.406" y="110.153"/>
      <point x="344.238" y="86.9857"/>
      <point x="344.023" y="70.9395" type="curve" smooth="yes"/>
      <point x="343.702" y="46.8613"/>
      <point x="343.174" y="22.8955"/>
      <point x="342.441" y="-0.958008" type="curve"/>
      <point x="342.423" y="26.7236"/>
      <point x="342.312" y="48.9652"/>
      <point x="342.109" y="65.7666" type="curve" smooth="yes"/>
      <point x="341.432" y="121.815"/>
      <point x="340.295" y="159.622"/>
    </contour>
    <contour>
      <point x="350" y="-84.7314" type="curve"/>
      <point x="380.452" y="-104.381"/>
      <point x="414.122" y="-114.207"/>
      <point x="451.008" y="-114.209" type="curve" smooth="yes"/>
      <point x="476.455" y="-114.209"/>
      <point x="500.761" y="-109.255"/>
      <point x="523.926" y="-99.3477" type="curve" smooth="yes"/>
      <point x="547.09" y="-89.4401"/>
      <point x="567.047" y="-76.1117"/>
      <point x="583.797" y="-59.3623" type="curve" smooth="yes"/>
      <point x="600.546" y="-42.613"/>
      <point x="613.874" y="-22.6559"/>
      <point x="623.781" y="0.508789" type="curve" smooth="yes"/>
      <point x="633.689" y="23.6735"/>
      <point x="638.643" y="47.9792"/>
      <point x="638.643" y="73.4258" type="curve" smooth="yes"/>
      <point x="638.643" y="98.8724"/>
      <point x="633.689" y="123.178"/>
      <point x="623.781" y="146.342" type="curve" smooth="yes"/>
      <point x="613.874" y="169.506"/>
      <point x="600.545" y="189.463"/>
      <point x="583.796" y="206.213" type="curve" smooth="yes"/>
      <point x="567.047" y="222.962"/>
      <point x="547.09" y="236.29"/>
      <point x="523.925" y="246.197" type="curve" smooth="yes"/>
      <point x="500.76" y="256.104"/>
      <point x="476.454" y="261.058"/>
      <point x="451.008" y="261.058" type="curve" smooth="yes"/>
      <point x="414.124" y="261.058"/>
      <point x="380.454" y="251.232"/>
      <point x="350" y="231.58" type="curve"/>
      <point x="319.515" y="251.232"/>
      <point x="285.678" y="261.058"/>
      <point x="248.488" y="261.058" type="curve" smooth="yes"/>
      <point x="223.113" y="260.991"/>
      <point x="198.874" y="255.988"/>
      <point x="175.773" y="246.049" type="curve" smooth="yes"/>
      <point x="152.673" y="236.111"/>
      <point x="132.77" y="222.769"/>
      <point x="116.062" y="206.023" type="curve" smooth="yes"/>
      <point x="99.3568" y="189.277"/>
      <point x="86.0632" y="169.339"/>
      <point x="76.1816" y="146.207" type="curve" smooth="yes"/>
      <point x="66.2988" y="123.076"/>
      <point x="61.3574" y="98.8151"/>
      <point x="61.3574" y="73.4258" type="curve" smooth="yes"/>
      <point x="61.3574" y="47.9948"/>
      <point x="66.3138" y="23.6976"/>
      <point x="76.2266" y="0.53418" type="curve" smooth="yes"/>
      <point x="86.1406" y="-22.6292"/>
      <point x="99.474" y="-42.5869"/>
      <point x="116.227" y="-59.3389" type="curve" smooth="yes"/>
      <point x="132.979" y="-76.0908"/>
      <point x="152.937" y="-89.4232"/>
      <point x="176.1" y="-99.3359" type="curve" smooth="yes"/>
      <point x="199.262" y="-109.249"/>
      <point x="223.559" y="-114.206"/>
      <point x="248.99" y="-114.206" type="curve" smooth="yes"/>
      <point x="285.877" y="-114.206"/>
      <point x="319.547" y="-104.381"/>
    </contour>
    <contour>
      <point x="360.219" y="-33.4902" type="curve"/>
      <point x="360.367" y="-30.8242"/>
      <point x="360.516" y="-27.9743"/>
      <point x="360.664" y="-24.9404" type="curve" smooth="yes"/>
      <point x="362.118" y="4.69173"/>
      <point x="363.08" y="38.4456"/>
      <point x="363.55" y="76.3213" type="curve" smooth="yes"/>
      <point x="363.754" y="92.8128"/>
      <point x="363.855" y="111.926"/>
      <point x="363.855" y="133.66" type="curve"/>
      <point x="363.91" y="131.859"/>
      <point x="364.161" y="124.623"/>
      <point x="364.611" y="111.95" type="curve" smooth="yes"/>
      <point x="365.061" y="99.2777"/>
      <point x="365.34" y="89.5195"/>
      <point x="365.451" y="82.6758" type="curve" smooth="yes"/>
      <point x="365.633" y="71.4043"/>
      <point x="365.805" y="54.4382"/>
      <point x="365.967" y="31.7773" type="curve" smooth="yes"/>
      <point x="366.128" y="9.11719"/>
      <point x="366.299" y="-7.40951"/>
      <point x="366.479" y="-17.8027" type="curve" smooth="yes"/>
      <point x="366.535" y="-21.0586"/>
      <point x="366.598" y="-23.9092"/>
      <point x="366.67" y="-26.3545" type="curve" smooth="yes"/>
      <point x="364.598" y="-28.7998"/>
      <point x="362.447" y="-31.1784"/>
    </contour>
    <contour>
      <point x="374.578" y="-16.167" type="curve"/>
      <point x="374.71" y="-14.0068"/>
      <point x="374.841" y="-11.696"/>
      <point x="374.972" y="-9.23438" type="curve" smooth="yes"/>
      <point x="376.149" y="12.9642"/>
      <point x="377.004" y="39.8464"/>
      <point x="377.535" y="71.4121" type="curve" smooth="yes"/>
      <point x="377.759" y="84.7246"/>
      <point x="377.946" y="102.158"/>
      <point x="378.096" y="123.711" type="curve"/>
      <point x="378.964" y="96.2292"/>
      <point x="379.565" y="60.7259"/>
      <point x="379.898" y="17.2012" type="curve" smooth="yes"/>
      <point x="379.977" y="7.11979"/>
      <point x="380.051" y="-1.20964"/>
      <point x="380.123" y="-7.78711" type="curve" smooth="yes"/>
      <point x="378.359" y="-10.6523"/>
      <point x="376.51" y="-13.4456"/>
    </contour>
    <contour>
      <point x="398.756" y="36.3535" type="curve" smooth="yes"/>
      <point x="398.66" y="35.9674"/>
      <point x="398.563" y="35.582"/>
      <point x="398.465" y="35.1973" type="curve"/>
      <point x="397.993" y="69.9674"/>
      <point x="397.355" y="97.7158"/>
      <point x="396.553" y="118.442" type="curve"/>
      <point x="398.345" y="112.606"/>
      <point x="399.776" y="106.683"/>
      <point x="400.846" y="100.675" type="curve" smooth="yes"/>
      <point x="400.62" y="91.9574"/>
      <point x="400.324" y="79.8656"/>
      <point x="399.955" y="64.3994" type="curve" smooth="yes"/>
      <point x="399.855" y="60.236"/>
      <point x="399.617" y="54.3229"/>
      <point x="399.24" y="46.6602" type="curve" smooth="yes"/>
      <point x="399.038" y="42.5755"/>
      <point x="398.877" y="39.14"/>
    </contour>
    <contour>
      <point x="390.055" y="11.0703" type="curve"/>
      <point x="390.639" y="25.6771"/>
      <point x="391.122" y="42.1048"/>
      <point x="391.502" y="60.3535" type="curve" smooth="yes"/>
      <point x="391.738" y="71.7142"/>
      <point x="391.985" y="87.9414"/>
      <point x="392.245" y="109.035" type="curve"/>
      <point x="392.89" y="89.2174"/>
      <point x="393.423" y="63.8975"/>
      <point x="393.844" y="33.0752" type="curve" smooth="yes"/>
      <point x="393.905" y="28.6449"/>
      <point x="393.964" y="24.5752"/>
      <point x="394.02" y="20.8662" type="curve" smooth="yes"/>
      <point x="392.816" y="17.5732"/>
      <point x="391.495" y="14.3079"/>
    </contour>
    <contour>
      <point x="387.593" y="141.059" type="curve" smooth="yes"/>
      <point x="387.504" y="138.834"/>
      <point x="387.419" y="136.345"/>
      <point x="387.338" y="133.592" type="curve" smooth="yes"/>
      <point x="387.11" y="125.833"/>
      <point x="386.839" y="112.72"/>
      <point x="386.525" y="94.2549" type="curve" smooth="yes"/>
      <point x="386.21" y="75.7887"/>
      <point x="386.023" y="65.1081"/>
      <point x="385.965" y="62.2129" type="curve" smooth="yes"/>
      <point x="385.831" y="55.5918"/>
      <point x="385.359" y="39.623"/>
      <point x="384.549" y="14.3066" type="curve"/>
      <point x="384.398" y="36.6602"/>
      <point x="384.236" y="53.82"/>
      <point x="384.062" y="65.7861" type="curve" smooth="yes"/>
      <point x="383.602" y="97.57"/>
      <point x="382.843" y="124.872"/>
      <point x="381.787" y="147.691" type="curve" smooth="yes"/>
      <point x="381.714" y="149.27"/>
      <point x="381.641" y="150.787"/>
      <point x="381.566" y="152.243" type="curve"/>
      <point x="383.311" y="149.294"/>
      <point x="384.969" y="146.271"/>
      <point x="386.539" y="143.174" type="curve" smooth="yes"/>
      <point x="386.896" y="142.47"/>
      <point x="387.247" y="141.765"/>
    </contour>
    <contour>
      <point x="373.445" y="164.593" type="curve" smooth="yes"/>
      <point x="373.333" y="161.726"/>
      <point x="373.231" y="158.335"/>
      <point x="373.139" y="154.42" type="curve" smooth="yes"/>
      <point x="372.93" y="145.619"/>
      <point x="372.711" y="131.332"/>
      <point x="372.48" y="111.558" type="curve" smooth="yes"/>
      <point x="372.251" y="91.7835"/>
      <point x="372.089" y="78.998"/>
      <point x="371.994" y="73.2012" type="curve" smooth="yes"/>
      <point x="371.68" y="54.0072"/>
      <point x="371.258" y="35.6123"/>
      <point x="370.729" y="18.0166" type="curve"/>
      <point x="370.548" y="46.6878"/>
      <point x="370.328" y="68.8141"/>
      <point x="370.07" y="84.3955" type="curve" smooth="yes"/>
      <point x="369.529" y="117.274"/>
      <point x="368.664" y="146.557"/>
      <point x="367.476" y="172.246" type="curve"/>
      <point x="369.545" y="169.762"/>
      <point x="371.535" y="167.211"/>
    </contour>
    <contour>
      <point x="358.617" y="181.976" type="curve" smooth="yes"/>
      <point x="358.494" y="170.582"/>
      <point x="358.4" y="154.302"/>
      <point x="358.335" y="133.136" type="curve" smooth="yes"/>
      <point x="358.259" y="108.347"/>
      <point x="358.15" y="89.9912"/>
      <point x="358.008" y="78.0674" type="curve" smooth="yes"/>
      <point x="357.717" y="53.8167"/>
      <point x="357.217" y="29.5944"/>
      <point x="356.506" y="5.40039" type="curve"/>
      <point x="356.47" y="33.5286"/>
      <point x="356.335" y="56.5081"/>
      <point x="356.1" y="74.3389" type="curve" smooth="yes"/>
      <point x="355.712" y="103.767"/>
      <point x="355.023" y="131.501"/>
      <point x="354.035" y="157.542" type="curve" smooth="yes"/>
      <point x="353.573" y="169.707"/>
      <point x="353.116" y="179.743"/>
      <point x="352.664" y="187.65" type="curve"/>
      <point x="354.706" y="185.807"/>
      <point x="356.69" y="183.916"/>
    </contour>
  </outline>
</glyph>
<glyph name="venn" format="2">
  <advance width="700" height="700"/>
  <unicode hex="F01B"/>
  <outline>
    <contour>
      <point x="350.007" y="-43.1465" type="curve"/>
      <point x="335.088" y="-30.2728"/>
      <point x="322.98" y="-14.8581"/>
      <point x="313.682" y="3.09766" type="curve" smooth="yes"/>
      <point x="302.415" y="24.8542"/>
      <point x="296.781" y="48.2969"/>
      <point x="296.78" y="73.4258" type="curve" smooth="yes"/>
      <point x="296.78" y="98.554"/>
      <point x="302.413" y="121.997"/>
      <point x="313.68" y="143.754" type="curve" smooth="yes"/>
      <point x="322.978" y="161.71"/>
      <point x="335.086" y="177.125"/>
      <point x="350.003" y="189.999" type="curve"/>
      <point x="365.157" y="176.933"/>
      <point x="377.335" y="161.324"/>
      <point x="386.539" y="143.174" type="curve" smooth="yes"/>
      <point x="397.66" y="121.243"/>
      <point x="403.221" y="97.9935"/>
      <point x="403.221" y="73.4258" type="curve" smooth="yes"/>
      <point x="403.221" y="48.8568"/>
      <point x="397.66" y="25.6068"/>
      <point x="386.539" y="3.67578" type="curve" smooth="yes"/>
      <point x="377.336" y="-14.472"/>
      <point x="365.159" y="-30.0794"/>
    </contour>
    <contour>
      <point x="94.7617" y="73.4258" type="curve" smooth="yes"/>
      <point x="94.7617" y="94.319"/>
      <point x="98.832" y="114.283"/>
      <point x="106.973" y="133.318" type="curve" smooth="yes"/>
      <point x="115.113" y="152.353"/>
      <point x="126.065" y="168.758"/>
      <point x="139.828" y="182.533" type="curve" smooth="yes"/>
      <point x="153.591" y="196.308"/>
      <point x="169.995" y="207.271"/>
      <point x="189.041" y="215.424" type="curve" smooth="yes"/>
      <point x="208.085" y="223.577"/>
      <point x="228.068" y="227.653"/>
      <point x="248.99" y="227.653" type="curve" smooth="yes"/>
      <point x="274.777" y="227.653"/>
      <point x="299.025" y="221.576"/>
      <point x="321.736" y="209.422" type="curve"/>
      <point x="303.39" y="191.999"/>
      <point x="289.077" y="171.552"/>
      <point x="278.797" y="148.082" type="curve" smooth="yes"/>
      <point x="268.516" y="124.612"/>
      <point x="263.375" y="99.7266"/>
      <point x="263.375" y="73.4258" type="curve" smooth="yes"/>
      <point x="263.375" y="47.125"/>
      <point x="268.516" y="22.2396"/>
      <point x="278.797" y="-1.23047" type="curve" smooth="yes"/>
      <point x="289.078" y="-24.7005"/>
      <point x="303.392" y="-45.1468"/>
      <point x="321.738" y="-62.5693" type="curve"/>
      <point x="299.027" y="-74.7236"/>
      <point x="274.778" y="-80.8008"/>
      <point x="248.99" y="-80.8008" type="curve" smooth="yes"/>
      <point x="228.087" y="-80.8008"/>
      <point x="208.116" y="-76.7269"/>
      <point x="189.076" y="-68.5791" type="curve" smooth="yes"/>
      <point x="170.037" y="-60.4313"/>
      <point x="153.632" y="-49.4723"/>
      <point x="139.862" y="-35.7021" type="curve" smooth="yes"/>
      <point x="126.092" y="-21.932"/>
      <point x="115.133" y="-5.52734"/>
      <point x="106.984" y="13.5117" type="curve" smooth="yes"/>
      <point x="98.8359" y="32.5508"/>
      <point x="94.7617" y="52.5221"/>
    </contour>
    <contour>
      <point x="605.238" y="73.4258" type="curve" smooth="yes"/>
      <point x="605.238" y="52.5039"/>
      <point x="601.167" y="32.5228"/>
      <point x="593.025" y="13.4824" type="curve" smooth="yes"/>
      <point x="584.883" y="-5.55924"/>
      <point x="573.93" y="-21.9632"/>
      <point x="560.164" y="-35.7295" type="curve" smooth="yes"/>
      <point x="546.397" y="-49.4958"/>
      <point x="529.993" y="-60.4499"/>
      <point x="510.952" y="-68.5918" type="curve" smooth="yes"/>
      <point x="491.911" y="-76.7337"/>
      <point x="471.93" y="-80.8047"/>
      <point x="451.008" y="-80.8047" type="curve" smooth="yes"/>
      <point x="425.262" y="-80.8047"/>
      <point x="401.016" y="-74.7253"/>
      <point x="378.27" y="-62.5664" type="curve"/>
      <point x="396.844" y="-44.9154"/>
      <point x="411.213" y="-24.2871"/>
      <point x="421.378" y="-0.681641" type="curve" smooth="yes"/>
      <point x="431.543" y="22.9232"/>
      <point x="436.625" y="47.6257"/>
      <point x="436.625" y="73.4258" type="curve" smooth="yes"/>
      <point x="436.625" y="99.2246"/>
      <point x="431.543" y="123.926"/>
      <point x="421.378" y="147.531" type="curve" smooth="yes"/>
      <point x="411.213" y="171.137"/>
      <point x="396.844" y="191.765"/>
      <point x="378.27" y="209.416" type="curve"/>
      <point x="401.014" y="221.574"/>
      <point x="425.261" y="227.653"/>
      <point x="451.01" y="227.653" type="curve" smooth="yes"/>
      <point x="471.93" y="227.653"/>
      <point x="491.911" y="223.583"/>
      <point x="510.953" y="215.441" type="curve" smooth="yes"/>
      <point x="529.993" y="207.299"/>
      <point x="546.397" y="196.345"/>
      <point x="560.164" y="182.579" type="curve" smooth="yes"/>
      <point x="573.93" y="168.813"/>
      <point x="584.883" y="152.409"/>
      <point x="593.025" y="133.368" type="curve" smooth="yes"/>
      <point x="601.167" y="114.327"/>
      <point x="605.238" y="94.3464"/>
    </contour>
    <contour>
      <point x="350" y="-84.7314" type="curve"/>
      <point x="380.452" y="-104.381"/>
      <point x="414.122" y="-114.207"/>
      <point x="451.008" y="-114.209" type="curve" smooth="yes"/>
      <point x="476.455" y="-114.209"/>
      <point x="500.761" y="-109.255"/>
      <point x="523.926" y="-99.3477" type="curve" smooth="yes"/>
      <point x="547.09" y="-89.4401"/>
      <point x="567.047" y="-76.1117"/>
      <point x="583.797" y="-59.3623" type="curve" smooth="yes"/>
      <point x="600.546" y="-42.613"/>
      <point x="613.874" y="-22.6559"/>
      <point x="623.781" y="0.508789" type="curve" smooth="yes"/>
      <point x="633.689" y="23.6735"/>
      <point x="638.643" y="47.9792"/>
      <point x="638.643" y="73.4258" type="curve" smooth="yes"/>
      <point x="638.643" y="98.8724"/>
      <point x="633.689" y="123.178"/>
      <point x="623.781" y="146.342" type="curve" smooth="yes"/>
      <point x="613.874" y="169.506"/>
      <point x="600.545" y="189.463"/>
      <point x="583.796" y="206.213" type="curve" smooth="yes"/>
      <point x="567.047" y="222.962"/>
      <point x="547.09" y="236.29"/>
      <point x="523.925" y="246.197" type="curve" smooth="yes"/>
      <point x="500.76" y="256.104"/>
      <point x="476.454" y="261.058"/>
      <point x="451.008" y="261.058" type="curve" smooth="yes"/>
      <point x="414.124" y="261.058"/>
      <point x="380.454" y="251.232"/>
      <point x="350" y="231.58" type="curve"/>
      <point x="319.515" y="251.232"/>
      <point x="285.678" y="261.058"/>
      <point x="248.488" y="261.058" type="curve" smooth="yes"/>
      <point x="223.113" y="260.991"/>
      <point x="198.874" y="255.988"/>
      <point x="175.773" y="246.049" type="curve" smooth="yes"/>
      <point x="152.673" y="236.111"/>
      <point x="132.77" y="222.769"/>
      <point x="116.062" y="206.023" type="curve" smooth="yes"/>
      <point x="99.3568" y="189.277"/>
      <point x="86.0632" y="169.339"/>
      <point x="76.1816" y="146.207" type="curve" smooth="yes"/>
      <point x="66.2988" y="123.076"/>
      <point x="61.3574" y="98.8151"/>
      <point x="61.3574" y="73.4258" type="curve" smooth="yes"/>
      <point x="61.3574" y="47.9948"/>
      <point x="66.3138" y="23.6976"/>
      <point x="76.2266" y="0.53418" type="curve" smooth="yes"/>
      <point x="86.1406" y="-22.6292"/>
      <point x="99.474" y="-42.5869"/>
      <point x="116.227" y="-59.3389" type="curve" smooth="yes"/>
      <point x="132.979" y="-76.0908"/>
      <point x="152.937" y="-89.4232"/>
      <point x="176.1" y="-99.3359" type="curve" smooth="yes"/>
      <point x="199.262" y="-109.249"/>
      <point x="223.559" y="-114.206"/>
      <point x="248.99" y="-114.206" type="curve" smooth="yes"/>
      <point x="285.877" y="-114.206"/>
      <point x="319.547" y="-104.381"/>
    </contour>
  </outline>
</glyph>
<glyph name="layers" format="2">
  <advance width="700" height="700"/>
  <unicode hex="F01D"/>
  <outline>
    <contour>
      <point x="350" y="-71.5" type="line"/>
      <point x="546.25" y="82.25" type="line"/>
      <point x="590" y="48.5" type="line"/>
      <point x="350" y="-137.75" type="line"/>
      <point x="110" y="48.5" type="line"/>
      <point x="153.75" y="82.25" type="line"/>
    </contour>
    <contour>
      <point x="350" y="-2.75" type="line"/>
      <point x="153.75" y="149.75" type="line"/>
      <point x="110" y="183.5" type="line"/>
      <point x="350" y="369.75" type="line"/>
      <point x="590" y="183.5" type="line"/>
      <point x="546.25" y="149.75" type="line"/>
    </contour>
    <contour>
      <point x="350" y="302.25" type="line"/>
      <point x="197.5" y="183.5" type="line"/>
      <point x="350" y="64.75" type="line"/>
      <point x="502.5" y="183.5" type="line"/>
    </contour>
  </outline>
</glyph>
<glyph name="reject" format="2">
  <advance width="700" height="700"/>
  <unicode hex="F01F"/>
  <outline>
    <contour>
      <point x="536.25" y="254.75" type="line"/>
      <point x="387.5" y="106" type="line"/>
      <point x="536.25" y="-42.75" type="line"/>
      <point x="498.75" y="-80.25" type="line"/>
      <point x="350" y="68.5" type="line"/>
      <point x="201.25" y="-80.25" type="line"/>
      <point x="163.75" y="-42.75" type="line"/>
      <point x="312.5" y="106" type="line"/>
      <point x="163.75" y="254.75" type="line"/>
      <point x="201.25" y="292.25" type="line"/>
      <point x="350" y="143.5" type="line"/>
      <point x="498.75" y="292.25" type="line"/>
    </contour>
  </outline>
</glyph>
<glyph name="save" format="2">
  <advance width="700" height="700"/>
  <unicode hex="F020"/>
  <outline>
    <contour>
      <point x="483.75" y="346" type="line"/>
      <point x="590" y="239.75" type="line"/>
      <point x="590" y="-80.25" type="line" smooth="yes"/>
      <point x="590" y="-95.25"/>
      <point x="584.792" y="-107.958"/>
      <point x="574.375" y="-118.375" type="curve" smooth="yes"/>
      <point x="563.958" y="-128.792"/>
      <point x="551.25" y="-134"/>
      <point x="536.25" y="-134" type="curve" smooth="yes"/>
      <point x="163.75" y="-134" type="line" smooth="yes"/>
      <point x="148.75" y="-134"/>
      <point x="136.042" y="-128.792"/>
      <point x="125.625" y="-118.375" type="curve" smooth="yes"/>
      <point x="115.208" y="-107.958"/>
      <point x="110" y="-95.25"/>
      <point x="110" y="-80.25" type="curve" smooth="yes"/>
      <point x="110" y="292.25" type="line" smooth="yes"/>
      <point x="110" y="307.25"/>
      <point x="115.208" y="319.958"/>
      <point x="125.625" y="330.375" type="curve" smooth="yes"/>
      <point x="136.042" y="340.792"/>
      <point x="148.75" y="346"/>
      <point x="163.75" y="346" type="curve" smooth="yes"/>
    </contour>
    <contour>
      <point x="536.25" y="-80.25" type="line"/>
      <point x="536.25" y="217.25" type="line"/>
      <point x="461.25" y="292.25" type="line"/>
      <point x="163.75" y="292.25" type="line"/>
      <point x="163.75" y="-80.25" type="line"/>
    </contour>
    <contour>
      <point x="350" y="106" type="curve" smooth="yes"/>
      <point x="371.667" y="106"/>
      <point x="390.417" y="98.0833"/>
      <point x="406.25" y="82.25" type="curve" smooth="yes"/>
      <point x="422.083" y="66.4167"/>
      <point x="430" y="47.6667"/>
      <point x="430" y="26" type="curve" smooth="yes"/>
      <point x="430" y="4.33333"/>
      <point x="422.083" y="-14.4167"/>
      <point x="406.25" y="-30.25" type="curve" smooth="yes"/>
      <point x="390.417" y="-46.0833"/>
      <point x="371.667" y="-54"/>
      <point x="350" y="-54" type="curve" smooth="yes"/>
      <point x="328.333" y="-54"/>
      <point x="309.583" y="-46.0833"/>
      <point x="293.75" y="-30.25" type="curve" smooth="yes"/>
      <point x="277.917" y="-14.4167"/>
      <point x="270" y="4.33333"/>
      <point x="270" y="26" type="curve" smooth="yes"/>
      <point x="270" y="47.6667"/>
      <point x="277.917" y="66.4167"/>
      <point x="293.75" y="82.25" type="curve" smooth="yes"/>
      <point x="309.583" y="98.0833"/>
      <point x="328.333" y="106"/>
    </contour>
    <contour>
      <point x="190" y="266" type="line"/>
      <point x="190" y="159.75" type="line"/>
      <point x="430" y="159.75" type="line"/>
      <point x="430" y="266" type="line"/>
    </contour>
  </outline>
</glyph>
<glyph name="export" format="2">
  <advance width="700" height="700"/>
  <unicode hex="F021"/>
  <outline>
    <contour>
      <point x="536.25" y="106" type="line"/>
      <point x="590" y="106" type="line"/>
      <point x="590" y="-80.25" type="line" smooth="yes"/>
      <point x="590" y="-95.25"/>
      <point x="584.792" y="-107.958"/>
      <point x="574.375" y="-118.375" type="curve" smooth="yes"/>
      <point x="563.958" y="-128.792"/>
      <point x="551.25" y="-134"/>
      <point x="536.25" y="-134" type="curve" smooth="yes"/>
      <point x="163.75" y="-134" type="line" smooth="yes"/>
      <point x="148.75" y="-134"/>
      <point x="136.042" y="-128.792"/>
      <point x="125.625" y="-118.375" type="curve" smooth="yes"/>
      <point x="115.208" y="-107.958"/>
      <point x="110" y="-95.25"/>
      <point x="110" y="-80.25" type="curve" smooth="yes"/>
      <point x="110" y="106" type="line"/>
      <point x="163.75" y="106" type="line"/>
      <point x="163.75" y="-80.25" type="line"/>
      <point x="536.25" y="-80.25" type="line"/>
    </contour>
    <contour>
      <point x="376.25" y="88.5" type="line"/>
      <point x="376.25" y="346" type="line"/>
      <point x="323.75" y="346" type="line"/>
      <point x="323.75" y="88.5" type="line"/>
      <point x="253.75" y="157.25" type="line"/>
      <point x="216.25" y="119.75" type="line"/>
      <point x="350" y="-14" type="line"/>
      <point x="483.75" y="119.75" type="line"/>
      <point x="446.25" y="157.25" type="line"/>
    </contour>
  </outline>
</glyph>
<glyph name="refresh" format="2">
  <advance width="700" height="700"/>
  <unicode hex="F023"/>
  <outline>
    <contour>
      <point x="350" y="286.875" type="line"/>
      <point x="409.167" y="286.875"/>
      <point x="459.583" y="266.042"/>
      <point x="501.25" y="224.375" type="curve" smooth="yes"/>
      <point x="542.917" y="182.708"/>
      <point x="563.75" y="132.708"/>
      <point x="563.75" y="74.375" type="curve" smooth="yes"/>
      <point x="563.75" y="15.2083"/>
      <point x="542.917" y="-35.2083"/>
      <point x="501.25" y="-76.875" type="curve" smooth="yes"/>
      <point x="459.583" y="-118.542"/>
      <point x="409.167" y="-139.375"/>
      <point x="350" y="-139.375" type="curve" smooth="yes"/>
      <point x="290.833" y="-139.375"/>
      <point x="240.417" y="-118.542"/>
      <point x="198.75" y="-76.875" type="curve" smooth="yes"/>
      <point x="157.083" y="-35.2083"/>
      <point x="136.25" y="15.2083"/>
      <point x="136.25" y="74.375" type="curve"/>
      <point x="190" y="74.375" type="line"/>
      <point x="190" y="30.2083"/>
      <point x="205.625" y="-7.5"/>
      <point x="236.875" y="-38.75" type="curve" smooth="yes"/>
      <point x="268.125" y="-70"/>
      <point x="305.833" y="-85.625"/>
      <point x="350" y="-85.625" type="curve" smooth="yes"/>
      <point x="394.167" y="-85.625"/>
      <point x="431.875" y="-70"/>
      <point x="463.125" y="-38.75" type="curve" smooth="yes"/>
      <point x="494.375" y="-7.5"/>
      <point x="510" y="30.2083"/>
      <point x="510" y="74.375" type="curve" smooth="yes"/>
      <point x="510" y="118.542"/>
      <point x="494.375" y="156.25"/>
      <point x="463.125" y="187.5" type="curve" smooth="yes"/>
      <point x="431.875" y="218.75"/>
      <point x="394.167" y="234.375"/>
      <point x="350" y="234.375" type="curve"/>
      <point x="350" y="126.875" type="line"/>
      <point x="216.25" y="260.625" type="line"/>
      <point x="350" y="394.375" type="line"/>
    </contour>
  </outline>
</glyph>
<glyph name="settings" format="2">
  <advance width="700" height="700"/>
  <unicode hex="F025"/>
  <outline>
    <contour>
      <point x="548.75" y="79.75" type="curve"/>
      <point x="605" y="36" type="line" smooth="yes"/>
      <point x="610.833" y="31.8333"/>
      <point x="611.667" y="26"/>
      <point x="607.5" y="18.5" type="curve" smooth="yes"/>
      <point x="553.75" y="-74" type="line" smooth="yes"/>
      <point x="551.25" y="-78.1667"/>
      <point x="547.5" y="-80.25"/>
      <point x="542.5" y="-80.25" type="curve" smooth="yes"/>
      <point x="540.833" y="-80.25"/>
      <point x="539.167" y="-79.8333"/>
      <point x="537.5" y="-79" type="curve" smooth="yes"/>
      <point x="471.25" y="-52.75" type="line"/>
      <point x="453.75" y="-65.25"/>
      <point x="438.75" y="-74"/>
      <point x="426.25" y="-79" type="curve"/>
      <point x="416.25" y="-149" type="line" smooth="yes"/>
      <point x="414.583" y="-156.5"/>
      <point x="410.417" y="-160.25"/>
      <point x="403.75" y="-160.25" type="curve" smooth="yes"/>
      <point x="296.25" y="-160.25" type="line" smooth="yes"/>
      <point x="289.583" y="-160.25"/>
      <point x="285.417" y="-156.5"/>
      <point x="283.75" y="-149" type="curve" smooth="yes"/>
      <point x="273.75" y="-79" type="line"/>
      <point x="261.25" y="-74"/>
      <point x="246.25" y="-65.25"/>
      <point x="228.75" y="-52.75" type="curve"/>
      <point x="162.5" y="-79" type="line" smooth="yes"/>
      <point x="161.667" y="-79.8333"/>
      <point x="160" y="-80.25"/>
      <point x="157.5" y="-80.25" type="curve" smooth="yes"/>
      <point x="152.5" y="-80.25"/>
      <point x="148.75" y="-78.1667"/>
      <point x="146.25" y="-74" type="curve" smooth="yes"/>
      <point x="92.5" y="18.5" type="line" smooth="yes"/>
      <point x="88.3333" y="26"/>
      <point x="89.1667" y="31.8333"/>
      <point x="95" y="36" type="curve" smooth="yes"/>
      <point x="151.25" y="79.75" type="line" smooth="yes"/>
      <point x="151.25" y="82.25"/>
      <point x="151.042" y="86.4167"/>
      <point x="150.625" y="92.25" type="curve" smooth="yes"/>
      <point x="150.208" y="98.0833"/>
      <point x="150" y="102.667"/>
      <point x="150" y="106" type="curve" smooth="yes"/>
      <point x="150" y="109.333"/>
      <point x="150.208" y="113.917"/>
      <point x="150.625" y="119.75" type="curve" smooth="yes"/>
      <point x="151.042" y="125.583"/>
      <point x="151.25" y="129.75"/>
      <point x="151.25" y="132.25" type="curve" smooth="yes"/>
      <point x="95" y="176" type="line" smooth="yes"/>
      <point x="89.1667" y="180.167"/>
      <point x="88.3333" y="186"/>
      <point x="92.5" y="193.5" type="curve" smooth="yes"/>
      <point x="146.25" y="286" type="line" smooth="yes"/>
      <point x="148.75" y="290.167"/>
      <point x="152.5" y="292.25"/>
      <point x="157.5" y="292.25" type="curve" smooth="yes"/>
      <point x="159.167" y="292.25"/>
      <point x="160.833" y="291.833"/>
      <point x="162.5" y="291" type="curve" smooth="yes"/>
      <point x="228.75" y="264.75" type="line"/>
      <point x="246.25" y="277.25"/>
      <point x="261.25" y="286"/>
      <point x="273.75" y="291" type="curve"/>
      <point x="283.75" y="361" type="line" smooth="yes"/>
      <point x="285.417" y="368.5"/>
      <point x="289.583" y="372.25"/>
      <point x="296.25" y="372.25" type="curve" smooth="yes"/>
      <point x="403.75" y="372.25" type="line" smooth="yes"/>
      <point x="410.417" y="372.25"/>
      <point x="414.583" y="368.5"/>
      <point x="416.25" y="361" type="curve" smooth="yes"/>
      <point x="426.25" y="291" type="line"/>
      <point x="438.75" y="286"/>
      <point x="453.75" y="277.25"/>
      <point x="471.25" y="264.75" type="curve"/>
      <point x="537.5" y="291" type="line" smooth="yes"/>
      <point x="538.333" y="291.833"/>
      <point x="540" y="292.25"/>
      <point x="542.5" y="292.25" type="curve" smooth="yes"/>
      <point x="547.5" y="292.25"/>
      <point x="551.25" y="290.167"/>
      <point x="553.75" y="286" type="curve" smooth="yes"/>
      <point x="607.5" y="193.5" type="line" smooth="yes"/>
      <point x="611.667" y="186"/>
      <point x="610.833" y="180.167"/>
      <point x="605" y="176" type="curve" smooth="yes"/>
      <point x="548.75" y="132.25" type="line" smooth="yes"/>
      <point x="548.75" y="129.75"/>
      <point x="548.958" y="125.583"/>
      <point x="549.375" y="119.75" type="curve" smooth="yes"/>
      <point x="549.792" y="113.917"/>
      <point x="550" y="109.333"/>
      <point x="550" y="106" type="curve" smooth="yes"/>
      <point x="550" y="102.667"/>
      <point x="549.792" y="98.0833"/>
      <point x="549.375" y="92.25" type="curve" smooth="yes"/>
      <point x="548.958" y="86.4167"/>
      <point x="548.75" y="82.25"/>
    </contour>
    <contour>
      <point x="495" y="126" type="curve" smooth="yes"/>
      <point x="491.25" y="156" type="line"/>
      <point x="515" y="174.75" type="line"/>
      <point x="543.75" y="197.25" type="line"/>
      <point x="525" y="229.75" type="line"/>
      <point x="491.25" y="216" type="line"/>
      <point x="462.5" y="204.75" type="line"/>
      <point x="438.75" y="222.25" type="line" smooth="yes"/>
      <point x="430.417" y="229.75"/>
      <point x="419.583" y="236.417"/>
      <point x="406.25" y="242.25" type="curve" smooth="yes"/>
      <point x="377.5" y="253.5" type="line"/>
      <point x="373.75" y="283.5" type="line"/>
      <point x="368.75" y="319.75" type="line"/>
      <point x="331.25" y="319.75" type="line"/>
      <point x="326.25" y="283.5" type="line"/>
      <point x="321.25" y="253.5" type="line"/>
      <point x="293.75" y="242.25" type="line" smooth="yes"/>
      <point x="281.25" y="236.417"/>
      <point x="270" y="229.75"/>
      <point x="260" y="222.25" type="curve" smooth="yes"/>
      <point x="236.25" y="204.75" type="line"/>
      <point x="208.75" y="214.75" type="line"/>
      <point x="175" y="228.5" type="line"/>
      <point x="156.25" y="197.25" type="line"/>
      <point x="185" y="174.75" type="line"/>
      <point x="208.75" y="156" type="line"/>
      <point x="205" y="126" type="line" smooth="yes"/>
      <point x="204.167" y="120.167"/>
      <point x="203.75" y="113.5"/>
      <point x="203.75" y="106" type="curve" smooth="yes"/>
      <point x="203.75" y="98.5"/>
      <point x="204.167" y="91.8333"/>
      <point x="205" y="86" type="curve" smooth="yes"/>
      <point x="208.75" y="56" type="line"/>
      <point x="185" y="37.25" type="line"/>
      <point x="156.25" y="14.75" type="line"/>
      <point x="175" y="-17.75" type="line"/>
      <point x="208.75" y="-4" type="line"/>
      <point x="236.25" y="7.25" type="line"/>
      <point x="261.25" y="-10.25" type="line" smooth="yes"/>
      <point x="269.583" y="-17.75"/>
      <point x="280.417" y="-24.4167"/>
      <point x="293.75" y="-30.25" type="curve" smooth="yes"/>
      <point x="322.5" y="-41.5" type="line"/>
      <point x="326.25" y="-71.5" type="line"/>
      <point x="331.25" y="-107.75" type="line"/>
      <point x="368.75" y="-107.75" type="line"/>
      <point x="373.75" y="-71.5" type="line"/>
      <point x="378.75" y="-41.5" type="line"/>
      <point x="406.25" y="-30.25" type="line" smooth="yes"/>
      <point x="418.75" y="-24.4167"/>
      <point x="430" y="-17.75"/>
      <point x="440" y="-10.25" type="curve" smooth="yes"/>
      <point x="463.75" y="7.25" type="line"/>
      <point x="491.25" y="-2.75" type="line"/>
      <point x="525" y="-16.5" type="line"/>
      <point x="543.75" y="14.75" type="line"/>
      <point x="515" y="37.25" type="line"/>
      <point x="491.25" y="56" type="line"/>
      <point x="495" y="86" type="line" smooth="yes"/>
      <point x="495.833" y="91.8333"/>
      <point x="496.25" y="98.5"/>
      <point x="496.25" y="106" type="curve" smooth="yes"/>
      <point x="496.25" y="113.5"/>
      <point x="495.833" y="120.167"/>
    </contour>
    <contour>
      <point x="350" y="212.25" type="curve" smooth="yes"/>
      <point x="379.167" y="212.25"/>
      <point x="404.167" y="201.833"/>
      <point x="425" y="181" type="curve" smooth="yes"/>
      <point x="445.833" y="160.167"/>
      <point x="456.25" y="135.167"/>
      <point x="456.25" y="106" type="curve" smooth="yes"/>
      <point x="456.25" y="76.8333"/>
      <point x="445.833" y="51.8333"/>
      <point x="425" y="31" type="curve" smooth="yes"/>
      <point x="404.167" y="10.1667"/>
      <point x="379.167" y="-0.25"/>
      <point x="350" y="-0.25" type="curve" smooth="yes"/>
      <point x="320.833" y="-0.25"/>
      <point x="295.833" y="10.1667"/>
      <point x="275" y="31" type="curve" smooth="yes"/>
      <point x="254.167" y="51.8333"/>
      <point x="243.75" y="76.8333"/>
      <point x="243.75" y="106" type="curve" smooth="yes"/>
      <point x="243.75" y="135.167"/>
      <point x="254.167" y="160.167"/>
      <point x="275" y="181" type="curve" smooth="yes"/>
      <point x="295.833" y="201.833"/>
      <point x="320.833" y="212.25"/>
    </contour>
    <contour>
      <point x="350" y="52.25" type="curve" smooth="yes"/>
      <point x="364.167" y="52.25"/>
      <point x="376.667" y="57.6667"/>
      <point x="387.5" y="68.5" type="curve" smooth="yes"/>
      <point x="398.333" y="79.3333"/>
      <point x="403.75" y="91.8333"/>
      <point x="403.75" y="106" type="curve" smooth="yes"/>
      <point x="403.75" y="120.167"/>
      <point x="398.333" y="132.667"/>
      <point x="387.5" y="143.5" type="curve" smooth="yes"/>
      <point x="376.667" y="154.333"/>
      <point x="364.167" y="159.75"/>
      <point x="350" y="159.75" type="curve" smooth="yes"/>
      <point x="335.833" y="159.75"/>
      <point x="323.333" y="154.333"/>
      <point x="312.5" y="143.5" type="curve" smooth="yes"/>
      <point x="301.667" y="132.667"/>
      <point x="296.25" y="120.167"/>
      <point x="296.25" y="106" type="curve" smooth="yes"/>
      <point x="296.25" y="91.8333"/>
      <point x="301.667" y="79.3333"/>
      <point x="312.5" y="68.5" type="curve" smooth="yes"/>
      <point x="323.333" y="57.6667"/>
      <point x="335.833" y="52.25"/>
    </contour>
  </outline>
</glyph>
<glyph name="copy" format="2">
  <advance width="700" height="700"/>
  <unicode hex="F026"/>
  <outline>
    <contour>
      <point x="469.375" y="412.25" type="line"/>
      <point x="469.375" y="358.5" type="line"/>
      <point x="149.375" y="358.5" type="line"/>
      <point x="149.375" y="-15.25" type="line"/>
      <point x="96.875" y="-15.25" type="line"/>
      <point x="96.875" y="358.5" type="line" smooth="yes"/>
      <point x="96.875" y="372.667"/>
      <point x="102.083" y="385.167"/>
      <point x="112.5" y="396" type="curve" smooth="yes"/>
      <point x="122.917" y="406.833"/>
      <point x="135.208" y="412.25"/>
      <point x="149.375" y="412.25" type="curve" smooth="yes"/>
    </contour>
    <contour>
      <point x="549.375" y="304.75" type="line" smooth="yes"/>
      <point x="564.375" y="304.75"/>
      <point x="577.083" y="299.542"/>
      <point x="587.5" y="289.125" type="curve" smooth="yes"/>
      <point x="597.917" y="278.708"/>
      <point x="603.125" y="266.417"/>
      <point x="603.125" y="252.25" type="curve" smooth="yes"/>
      <point x="603.125" y="-121.5" type="line" smooth="yes"/>
      <point x="603.125" y="-135.667"/>
      <point x="597.917" y="-148.167"/>
      <point x="587.5" y="-159" type="curve" smooth="yes"/>
      <point x="577.083" y="-169.833"/>
      <point x="564.375" y="-175.25"/>
      <point x="549.375" y="-175.25" type="curve" smooth="yes"/>
      <point x="256.875" y="-175.25" type="line" smooth="yes"/>
      <point x="241.875" y="-175.25"/>
      <point x="229.167" y="-169.833"/>
      <point x="218.75" y="-159" type="curve" smooth="yes"/>
      <point x="208.333" y="-148.167"/>
      <point x="203.125" y="-135.667"/>
      <point x="203.125" y="-121.5" type="curve" smooth="yes"/>
      <point x="203.125" y="252.25" type="line" smooth="yes"/>
      <point x="203.125" y="266.417"/>
      <point x="208.333" y="278.708"/>
      <point x="218.75" y="289.125" type="curve" smooth="yes"/>
      <point x="229.167" y="299.542"/>
      <point x="241.875" y="304.75"/>
      <point x="256.875" y="304.75" type="curve" smooth="yes"/>
    </contour>
    <contour>
      <point x="549.375" y="-121.5" type="line"/>
      <point x="549.375" y="252.25" type="line"/>
      <point x="256.875" y="252.25" type="line"/>
      <point x="256.875" y="-121.5" type="line"/>
    </contour>
  </outline>
</glyph>
<glyph name="cut" format="2">
  <advance width="700" height="700"/>
  <unicode hex="F027"/>
  <outline>
    <contour>
      <point x="287.5" y="234.75" type="curve"/>
      <point x="616.25" y="-95.25" type="line"/>
      <point x="616.25" y="-121.5" type="line"/>
      <point x="536.25" y="-121.5" type="line"/>
      <point x="350" y="64.75" type="line"/>
      <point x="287.5" y="2.25" type="line"/>
      <point x="293.333" y="-10.25"/>
      <point x="296.25" y="-24.8333"/>
      <point x="296.25" y="-41.5" type="curve" smooth="yes"/>
      <point x="296.25" y="-70.6667"/>
      <point x="285.833" y="-95.6667"/>
      <point x="265" y="-116.5" type="curve" smooth="yes"/>
      <point x="244.167" y="-137.333"/>
      <point x="219.167" y="-147.75"/>
      <point x="190" y="-147.75" type="curve" smooth="yes"/>
      <point x="160.833" y="-147.75"/>
      <point x="135.833" y="-137.333"/>
      <point x="115" y="-116.5" type="curve" smooth="yes"/>
      <point x="94.1667" y="-95.6667"/>
      <point x="83.75" y="-70.6667"/>
      <point x="83.75" y="-41.5" type="curve" smooth="yes"/>
      <point x="83.75" y="-12.3333"/>
      <point x="94.1667" y="12.6667"/>
      <point x="115" y="33.5" type="curve" smooth="yes"/>
      <point x="135.833" y="54.3333"/>
      <point x="160.833" y="64.75"/>
      <point x="190" y="64.75" type="curve" smooth="yes"/>
      <point x="206.667" y="64.75"/>
      <point x="221.25" y="61.8333"/>
      <point x="233.75" y="56" type="curve"/>
      <point x="296.25" y="118.5" type="line"/>
      <point x="233.75" y="181" type="line"/>
      <point x="221.25" y="175.167"/>
      <point x="206.667" y="172.25"/>
      <point x="190" y="172.25" type="curve" smooth="yes"/>
      <point x="160.833" y="172.25"/>
      <point x="135.833" y="182.667"/>
      <point x="115" y="203.5" type="curve" smooth="yes"/>
      <point x="94.1667" y="224.333"/>
      <point x="83.75" y="249.333"/>
      <point x="83.75" y="278.5" type="curve" smooth="yes"/>
      <point x="83.75" y="307.667"/>
      <point x="94.1667" y="332.667"/>
      <point x="115" y="353.5" type="curve" smooth="yes"/>
      <point x="135.833" y="374.333"/>
      <point x="160.833" y="384.75"/>
      <point x="190" y="384.75" type="curve" smooth="yes"/>
      <point x="219.167" y="384.75"/>
      <point x="244.167" y="374.333"/>
      <point x="265" y="353.5" type="curve" smooth="yes"/>
      <point x="285.833" y="332.667"/>
      <point x="296.25" y="307.667"/>
      <point x="296.25" y="278.5" type="curve" smooth="yes"/>
      <point x="296.25" y="261.833"/>
      <point x="293.333" y="247.25"/>
    </contour>
    <contour>
      <point x="190" y="224.75" type="curve" smooth="yes"/>
      <point x="204.167" y="224.75"/>
      <point x="216.667" y="229.958"/>
      <point x="227.5" y="240.375" type="curve" smooth="yes"/>
      <point x="238.333" y="250.792"/>
      <point x="243.75" y="263.5"/>
      <point x="243.75" y="278.5" type="curve" smooth="yes"/>
      <point x="243.75" y="293.5"/>
      <point x="238.333" y="306.208"/>
      <point x="227.5" y="316.625" type="curve" smooth="yes"/>
      <point x="216.667" y="327.042"/>
      <point x="204.167" y="332.25"/>
      <point x="190" y="332.25" type="curve" smooth="yes"/>
      <point x="175.833" y="332.25"/>
      <point x="163.333" y="327.042"/>
      <point x="152.5" y="316.625" type="curve" smooth="yes"/>
      <point x="141.667" y="306.208"/>
      <point x="136.25" y="293.5"/>
      <point x="136.25" y="278.5" type="curve" smooth="yes"/>
      <point x="136.25" y="263.5"/>
      <point x="141.667" y="250.792"/>
      <point x="152.5" y="240.375" type="curve" smooth="yes"/>
      <point x="163.333" y="229.958"/>
      <point x="175.833" y="224.75"/>
    </contour>
    <contour>
      <point x="190" y="-95.25" type="curve" smooth="yes"/>
      <point x="204.167" y="-95.25"/>
      <point x="216.667" y="-90.0417"/>
      <point x="227.5" y="-79.625" type="curve" smooth="yes"/>
      <point x="238.333" y="-69.2083"/>
      <point x="243.75" y="-56.5"/>
      <point x="243.75" y="-41.5" type="curve" smooth="yes"/>
      <point x="243.75" y="-26.5"/>
      <point x="238.333" y="-13.7917"/>
      <point x="227.5" y="-3.375" type="curve" smooth="yes"/>
      <point x="216.667" y="7.04167"/>
      <point x="204.167" y="12.25"/>
      <point x="190" y="12.25" type="curve" smooth="yes"/>
      <point x="175.833" y="12.25"/>
      <point x="163.333" y="7.04167"/>
      <point x="152.5" y="-3.375" type="curve" smooth="yes"/>
      <point x="141.667" y="-13.7917"/>
      <point x="136.25" y="-26.5"/>
      <point x="136.25" y="-41.5" type="curve" smooth="yes"/>
      <point x="136.25" y="-56.5"/>
      <point x="141.667" y="-69.2083"/>
      <point x="152.5" y="-79.625" type="curve" smooth="yes"/>
      <point x="163.333" y="-90.0417"/>
      <point x="175.833" y="-95.25"/>
    </contour>
    <contour>
      <point x="350" y="104.75" type="curve" smooth="yes"/>
      <point x="359.167" y="104.75"/>
      <point x="363.75" y="109.333"/>
      <point x="363.75" y="118.5" type="curve" smooth="yes"/>
      <point x="363.75" y="127.667"/>
      <point x="359.167" y="132.25"/>
      <point x="350" y="132.25" type="curve" smooth="yes"/>
      <point x="340.833" y="132.25"/>
      <point x="336.25" y="127.667"/>
      <point x="336.25" y="118.5" type="curve" smooth="yes"/>
      <point x="336.25" y="109.333"/>
      <point x="340.833" y="104.75"/>
    </contour>
    <contour>
      <point x="536.25" y="358.5" type="line"/>
      <point x="616.25" y="358.5" type="line"/>
      <point x="616.25" y="332.25" type="line"/>
      <point x="430" y="144.75" type="line"/>
      <point x="376.25" y="198.5" type="line"/>
    </contour>
  </outline>
</glyph>
<glyph name="guidelines" format="2">
  <advance width="781" height="781"/>
  <unicode hex="F030"/>
  <outline>
    <contour>
      <point x="230.195" y="23.002" type="curve" smooth="yes"/>
      <point x="227.928" y="23.002"/>
      <point x="225.462" y="23.8346"/>
      <point x="222.795" y="25.5" type="curve" smooth="yes"/>
      <point x="220.128" y="27.1667"/>
      <point x="218.772" y="28.7913"/>
      <point x="218.727" y="30.374" type="curve" smooth="yes"/>
      <point x="218.6" y="34.79"/>
      <point x="222.013" y="37.7939"/>
      <point x="228.967" y="39.3857" type="curve" smooth="yes"/>
      <point x="239.519" y="41.1286"/>
      <point x="246.253" y="43.6198"/>
      <point x="249.169" y="46.8594" type="curve" smooth="yes"/>
      <point x="252.253" y="50.2865"/>
      <point x="253.711" y="56.3968"/>
      <point x="253.542" y="65.1904" type="curve" smooth="yes"/>
      <point x="253.542" y="203.139" type="line"/>
      <point x="212.582" y="203.139" type="line"/>
      <point x="212.582" y="-56.4609" type="line"/>
      <point x="532.48" y="-56.4609" type="line"/>
      <point x="532.48" y="25.5458" type="line"/>
      <point x="529.681" y="24.3188"/>
      <point x="525.448" y="23.6073"/>
      <point x="519.781" y="23.4111" type="curve" smooth="yes"/>
      <point x="511.79" y="23.137"/>
      <point x="497.462" y="23.6667"/>
      <point x="476.795" y="25" type="curve" smooth="yes"/>
      <point x="456.128" y="26.3333"/>
      <point x="444.926" y="26.7598"/>
      <point x="443.188" y="26.2793" type="curve" smooth="yes"/>
      <point x="440.926" y="25.4264"/>
      <point x="431.628" y="25.0465"/>
      <point x="415.294" y="25.1396" type="curve" smooth="yes"/>
      <point x="403.628" y="25.0465"/>
      <point x="394.493" y="24.7435"/>
      <point x="387.891" y="24.2305" type="curve" smooth="yes"/>
      <point x="386.493" y="24.0768"/>
      <point x="384.962" y="24.6667"/>
      <point x="383.295" y="26" type="curve" smooth="yes"/>
      <point x="381.628" y="27.3333"/>
      <point x="380.703" y="28.7913"/>
      <point x="380.519" y="30.374" type="curve" smooth="yes"/>
      <point x="380.005" y="34.7881"/>
      <point x="382.599" y="37.792"/>
      <point x="388.301" y="39.3857" type="curve" smooth="yes"/>
      <point x="399.964" y="41.7952"/>
      <point x="405.971" y="45.7546"/>
      <point x="406.323" y="51.2637" type="curve" smooth="yes"/>
      <point x="406.638" y="54.4212"/>
      <point x="404.316" y="59.0635"/>
      <point x="399.359" y="65.1904" type="curve" smooth="yes"/>
      <point x="337.101" y="138.919" type="line" smooth="yes"/>
      <point x="333.563" y="142.973"/>
      <point x="330.324" y="145"/>
      <point x="327.381" y="145" type="curve" smooth="yes"/>
      <point x="324.324" y="145"/>
      <point x="322.785" y="142.973"/>
      <point x="322.765" y="138.919" type="curve" smooth="yes"/>
      <point x="322.785" y="106.306"/>
      <point x="323.195" y="81.8665"/>
      <point x="323.994" y="65.5996" type="curve" smooth="yes"/>
      <point x="324.528" y="57.1999"/>
      <point x="325.962" y="51.5"/>
      <point x="328.295" y="48.5" type="curve" smooth="yes"/>
      <point x="330.628" y="45.5"/>
      <point x="336.977" y="42.4619"/>
      <point x="347.34" y="39.3857" type="curve" smooth="yes"/>
      <point x="353.643" y="37.7952"/>
      <point x="357.057" y="34.9277"/>
      <point x="357.581" y="30.7832" type="curve" smooth="yes"/>
      <point x="357.724" y="28.9277"/>
      <point x="356.462" y="27.3333"/>
      <point x="353.795" y="26" type="curve" smooth="yes"/>
      <point x="351.128" y="24.6667"/>
      <point x="348.567" y="23.9404"/>
      <point x="346.112" y="23.8213" type="curve" smooth="yes"/>
      <point x="336.567" y="23.9404"/>
      <point x="325.462" y="24.5"/>
      <point x="312.795" y="25.5" type="curve" smooth="yes"/>
      <point x="300.128" y="26.5"/>
      <point x="291.628" y="27"/>
      <point x="287.295" y="27" type="curve" smooth="yes"/>
      <point x="282.962" y="27"/>
      <point x="274.962" y="26.3353"/>
      <point x="263.295" y="25.0059" type="curve" smooth="yes"/>
      <point x="251.628" y="23.6699"/>
      <point x="240.595" y="23.002"/>
    </contour>
    <contour>
      <point x="195.379" y="441.414" type="line"/>
      <point x="212.582" y="441.414" type="line"/>
      <point x="212.582" y="370.342" type="line"/>
      <point x="532.48" y="370.342" type="line"/>
      <point x="532.48" y="441.414" type="line"/>
      <point x="549.684" y="441.414" type="line"/>
      <point x="549.684" y="370.342" type="line"/>
      <point x="609.386" y="370.342" type="line"/>
      <point x="609.386" y="353.139" type="line"/>
      <point x="549.684" y="353.139" type="line"/>
      <point x="549.684" y="220.342" type="line"/>
      <point x="609.386" y="220.342" type="line"/>
      <point x="609.386" y="203.139" type="line"/>
      <point x="549.684" y="203.139" type="line"/>
      <point x="549.684" y="-56.4609" type="line"/>
      <point x="609.386" y="-56.4609" type="line"/>
      <point x="609.386" y="-73.6641" type="line"/>
      <point x="549.684" y="-73.6641" type="line"/>
      <point x="549.684" y="-135.414" type="line"/>
      <point x="532.48" y="-135.414" type="line"/>
      <point x="532.48" y="-73.6641" type="line"/>
      <point x="212.582" y="-73.6641" type="line"/>
      <point x="212.582" y="-135.414" type="line"/>
      <point x="195.379" y="-135.414" type="line"/>
      <point x="195.379" y="-73.6641" type="line"/>
      <point x="128.205" y="-73.6641" type="line"/>
      <point x="128.205" y="-56.4609" type="line"/>
      <point x="195.379" y="-56.4609" type="line"/>
      <point x="195.379" y="203.139" type="line"/>
      <point x="128.205" y="203.139" type="line"/>
      <point x="128.205" y="220.342" type="line"/>
      <point x="195.379" y="220.342" type="line"/>
      <point x="195.379" y="353.139" type="line"/>
      <point x="128.205" y="353.139" type="line"/>
      <point x="128.205" y="370.342" type="line"/>
      <point x="195.379" y="370.342" type="line"/>
    </contour>
    <contour>
      <point x="610.045" y="331.75" type="line"/>
      <point x="652.795" y="289" type="line"/>
      <point x="610.045" y="246.25" type="line"/>
      <point x="602.545" y="253.75" type="line"/>
      <point x="632.295" y="283.75" type="line"/>
      <point x="567.295" y="283.75" type="line"/>
      <point x="567.295" y="294.25" type="line"/>
      <point x="632.295" y="294.25" type="line"/>
      <point x="602.545" y="324.25" type="line"/>
    </contour>
    <contour>
      <point x="418.795" y="-134" type="line"/>
      <point x="376.045" y="-176.75" type="line"/>
      <point x="333.295" y="-134" type="line"/>
      <point x="340.795" y="-126.5" type="line"/>
      <point x="370.795" y="-156.25" type="line"/>
      <point x="370.795" y="-91.25" type="line"/>
      <point x="381.295" y="-91.25" type="line"/>
      <point x="381.295" y="-156.25" type="line"/>
      <point x="411.295" y="-126.5" type="line"/>
    </contour>
    <contour>
      <point x="532.48" y="35.6909" type="curve"/>
      <point x="532.48" y="203.139" type="line"/>
      <point x="399.087" y="203.139" type="line"/>
      <point x="391.252" y="195.518"/>
      <point x="386.428" y="190.905"/>
      <point x="384.613" y="189.299" type="curve" smooth="yes"/>
      <point x="380.068" y="185.766"/>
      <point x="380.068" y="181.397"/>
      <point x="384.613" y="176.192" type="curve" smooth="yes"/>
      <point x="482.51" y="65.5996" type="line" smooth="yes"/>
      <point x="492.976" y="53.7754"/>
      <point x="506.765" y="45.0374"/>
      <point x="523.878" y="39.3857" type="curve" smooth="yes"/>
      <point x="527.535" y="38.144"/>
      <point x="530.403" y="36.9123"/>
    </contour>
    <contour>
      <point x="532.48" y="353.139" type="line"/>
      <point x="212.582" y="353.139" type="line"/>
      <point x="212.582" y="220.342" type="line"/>
      <point x="253.542" y="220.342" type="line"/>
      <point x="253.542" y="251.148" type="line" smooth="yes"/>
      <point x="253.542" y="259.885"/>
      <point x="251.751" y="266.044"/>
      <point x="248.169" y="269.627" type="curve" smooth="yes"/>
      <point x="244.586" y="273.209"/>
      <point x="237.367" y="276.197"/>
      <point x="226.51" y="278.592" type="curve" smooth="yes"/>
      <point x="221.367" y="279.531"/>
      <point x="218.772" y="282.535"/>
      <point x="218.727" y="287.604" type="curve" smooth="yes"/>
      <point x="218.772" y="289.201"/>
      <point x="219.462" y="290.667"/>
      <point x="220.795" y="292" type="curve" smooth="yes"/>
      <point x="222.128" y="293.333"/>
      <point x="223.896" y="293.916"/>
      <point x="226.1" y="293.747" type="curve" smooth="yes"/>
      <point x="231.896" y="293.916"/>
      <point x="242.296" y="293.624"/>
      <point x="257.297" y="292.873" type="curve" smooth="yes"/>
      <point x="272.296" y="292.291"/>
      <point x="282.462" y="292"/>
      <point x="287.795" y="292" type="curve" smooth="yes"/>
      <point x="293.128" y="292"/>
      <point x="303.629" y="292.291"/>
      <point x="319.297" y="292.874" type="curve" smooth="yes"/>
      <point x="334.962" y="293.625"/>
      <point x="345.539" y="293.779"/>
      <point x="351.027" y="293.338" type="curve" smooth="yes"/>
      <point x="355.539" y="293.113"/>
      <point x="357.795" y="291"/>
      <point x="357.795" y="287" type="curve" smooth="yes"/>
      <point x="357.795" y="283"/>
      <point x="355.13" y="280.197"/>
      <point x="349.799" y="278.592" type="curve" smooth="yes"/>
      <point x="338.556" y="275.206"/>
      <point x="331.221" y="271.842"/>
      <point x="327.795" y="268.5" type="curve" smooth="yes"/>
      <point x="324.714" y="265.111"/>
      <point x="323.174" y="259.191"/>
      <point x="323.174" y="250.739" type="curve" smooth="yes"/>
      <point x="323.174" y="220.342" type="line"/>
      <point x="387.455" y="220.342" type="line"/>
      <point x="415.744" y="251.148" type="line" smooth="yes"/>
      <point x="421.115" y="256.998"/>
      <point x="423.709" y="261.23"/>
      <point x="423.526" y="263.846" type="curve" smooth="yes"/>
      <point x="423.705" y="269.282"/>
      <point x="417.424" y="273.651"/>
      <point x="404.684" y="276.954" type="curve" smooth="yes"/>
      <point x="399.424" y="278.318"/>
      <point x="396.831" y="281.322"/>
      <point x="396.902" y="285.965" type="curve" smooth="yes"/>
      <point x="396.831" y="287.322"/>
      <point x="397.628" y="288.667"/>
      <point x="399.295" y="290" type="curve" smooth="yes"/>
      <point x="400.962" y="291.333"/>
      <point x="402.622" y="292.036"/>
      <point x="404.275" y="292.108" type="curve" smooth="yes"/>
      <point x="433.766" y="292.108" type="line" smooth="yes"/>
      <point x="461.118" y="292.036"/>
      <point x="475.35" y="292.185"/>
      <point x="476.46" y="292.555" type="curve" smooth="yes"/>
      <point x="492.683" y="292.852"/>
      <point x="506.578" y="293.113"/>
      <point x="518.144" y="293.338" type="curve" smooth="yes"/>
      <point x="525.244" y="293.113"/>
      <point x="528.931" y="291.064"/>
      <point x="529.203" y="287.193" type="curve" smooth="yes"/>
      <point x="528.931" y="283.064"/>
      <point x="524.835" y="280.197"/>
      <point x="516.916" y="278.592" type="curve" smooth="yes"/>
      <point x="492.835" y="275.531"/>
      <point x="471.809" y="267.202"/>
      <point x="453.836" y="253.606" type="curve" smooth="yes"/>
      <point x="444.92" y="246.871"/>
      <point x="432.538" y="235.783"/>
      <point x="416.691" y="220.342" type="curve"/>
      <point x="532.48" y="220.342" type="line"/>
    </contour>
    <contour>
      <point x="323.174" y="203.139" type="line"/>
      <point x="323.174" y="165.951" type="line" smooth="yes"/>
      <point x="323.174" y="161.974"/>
      <point x="324.676" y="159.926"/>
      <point x="327.68" y="159.808" type="curve" smooth="yes"/>
      <point x="330.423" y="159.936"/>
      <point x="333.7" y="161.984"/>
      <point x="337.51" y="165.951" type="curve" smooth="yes"/>
      <point x="371.658" y="203.139" type="line"/>
    </contour>
  </outline>
</glyph>
<glyph name="dash" format="2">
  <advance width="700" height="700"/>
  <unicode hex="F035"/>
  <outline>
    <contour>
      <point x="313.893" y="365.398" type="curve" smooth="yes"/>
      <point x="306.919" y="360.843"/>
      <point x="300.032" y="355.916"/>
      <point x="293.23" y="350.618" type="curve" smooth="yes"/>
      <point x="284.517" y="343.83"/>
      <point x="279.479" y="334.956"/>
      <point x="278.117" y="323.994" type="curve" smooth="yes"/>
      <point x="276.755" y="313.033"/>
      <point x="279.468" y="303.196"/>
      <point x="286.257" y="294.481" type="curve" smooth="yes"/>
      <point x="293.045" y="285.768"/>
      <point x="301.919" y="280.73"/>
      <point x="312.881" y="279.368" type="curve" smooth="yes"/>
      <point x="323.842" y="278.006"/>
      <point x="333.679" y="280.719"/>
      <point x="342.394" y="287.508" type="curve" smooth="yes"/>
      <point x="347.444" y="291.442"/>
      <point x="352.527" y="295.08"/>
      <point x="357.643" y="298.422" type="curve" smooth="yes"/>
      <point x="366.891" y="304.462"/>
      <point x="372.648" y="312.888"/>
      <point x="374.916" y="323.698" type="curve" smooth="yes"/>
      <point x="377.184" y="334.509"/>
      <point x="375.297" y="344.538"/>
      <point x="369.256" y="353.785" type="curve" smooth="yes"/>
      <point x="363.215" y="363.033"/>
      <point x="354.79" y="368.79"/>
      <point x="343.979" y="371.058" type="curve" smooth="yes"/>
      <point x="333.169" y="373.325"/>
      <point x="323.14" y="371.439"/>
    </contour>
    <contour>
      <point x="222.096" y="277.485" type="curve" smooth="yes"/>
      <point x="217.344" y="271.28"/>
      <point x="212.651" y="264.856"/>
      <point x="208.018" y="258.215" type="curve" smooth="yes"/>
      <point x="201.698" y="249.156"/>
      <point x="199.507" y="239.189"/>
      <point x="201.443" y="228.314" type="curve" smooth="yes"/>
      <point x="203.381" y="217.44"/>
      <point x="208.879" y="208.843"/>
      <point x="217.938" y="202.523" type="curve" smooth="yes"/>
      <point x="226.997" y="196.204"/>
      <point x="236.964" y="194.012"/>
      <point x="247.839" y="195.949" type="curve" smooth="yes"/>
      <point x="258.713" y="197.886"/>
      <point x="267.31" y="203.384"/>
      <point x="273.63" y="212.443" type="curve" smooth="yes"/>
      <point x="277.584" y="218.111"/>
      <point x="281.577" y="223.577"/>
      <point x="285.608" y="228.841" type="curve" smooth="yes"/>
      <point x="292.325" y="237.61"/>
      <point x="294.957" y="247.47"/>
      <point x="293.505" y="258.42" type="curve" smooth="yes"/>
      <point x="292.054" y="269.37"/>
      <point x="286.943" y="278.203"/>
      <point x="278.174" y="284.919" type="curve" smooth="yes"/>
      <point x="269.405" y="291.635"/>
      <point x="259.546" y="294.268"/>
      <point x="248.596" y="292.816" type="curve" smooth="yes"/>
      <point x="237.646" y="291.365"/>
      <point x="228.812" y="286.254"/>
    </contour>
    <contour>
      <point x="158.264" y="173.979" type="curve" smooth="yes"/>
      <point x="155.217" y="167.882" type="line" smooth="yes"/>
      <point x="152.723" y="162.856"/>
      <point x="150.316" y="157.769"/>
      <point x="147.996" y="152.621" type="curve" smooth="yes"/>
      <point x="143.456" y="142.551"/>
      <point x="143.141" y="132.352"/>
      <point x="147.051" y="122.021" type="curve" smooth="yes"/>
      <point x="150.961" y="111.691"/>
      <point x="157.951" y="104.256"/>
      <point x="168.02" y="99.7158" type="curve" smooth="yes"/>
      <point x="178.089" y="95.1755"/>
      <point x="188.289" y="94.8604"/>
      <point x="198.62" y="98.7705" type="curve" smooth="yes"/>
      <point x="208.951" y="102.681"/>
      <point x="216.386" y="109.671"/>
      <point x="220.926" y="119.74" type="curve" smooth="yes"/>
      <point x="222.842" y="123.992"/>
      <point x="224.793" y="128.118"/>
      <point x="226.777" y="132.118" type="curve" smooth="yes"/>
      <point x="229.824" y="138.214" type="line" smooth="yes"/>
      <point x="234.762" y="148.094"/>
      <point x="235.483" y="158.273"/>
      <point x="231.988" y="168.752" type="curve" smooth="yes"/>
      <point x="228.493" y="179.23"/>
      <point x="221.806" y="186.938"/>
      <point x="211.926" y="191.876" type="curve" smooth="yes"/>
      <point x="202.046" y="196.814"/>
      <point x="191.866" y="197.536"/>
      <point x="181.388" y="194.041" type="curve" smooth="yes"/>
      <point x="170.91" y="190.546"/>
      <point x="163.202" y="183.859"/>
    </contour>
    <contour>
      <point x="116.256" y="57.9404" type="curve" smooth="yes"/>
      <point x="114.445" y="50.0446"/>
      <point x="112.843" y="42.1849"/>
      <point x="111.451" y="34.3613" type="curve" smooth="yes"/>
      <point x="109.516" y="23.4863"/>
      <point x="111.71" y="13.5199"/>
      <point x="118.031" y="4.46191" type="curve" smooth="yes"/>
      <point x="124.353" y="-4.59603"/>
      <point x="132.951" y="-10.0924"/>
      <point x="143.826" y="-12.0273" type="curve" smooth="yes"/>
      <point x="154.701" y="-13.9616"/>
      <point x="164.668" y="-11.7679"/>
      <point x="173.726" y="-5.44629" type="curve" smooth="yes"/>
      <point x="182.784" y="0.875326"/>
      <point x="188.28" y="9.47331"/>
      <point x="190.214" y="20.3477" type="curve" smooth="yes"/>
      <point x="191.375" y="26.8743"/>
      <point x="192.714" y="33.4434"/>
      <point x="194.23" y="40.0547" type="curve" smooth="yes"/>
      <point x="196.7" y="50.821"/>
      <point x="195.001" y="60.8835"/>
      <point x="189.135" y="70.2422" type="curve" smooth="yes"/>
      <point x="183.268" y="79.6009"/>
      <point x="174.952" y="85.5153"/>
      <point x="164.187" y="87.9854" type="curve" smooth="yes"/>
      <point x="153.42" y="90.4548"/>
      <point x="143.358" y="88.7562"/>
      <point x="133.999" y="82.8896" type="curve" smooth="yes"/>
      <point x="124.64" y="77.0231"/>
      <point x="118.725" y="68.7067"/>
    </contour>
    <contour>
      <point x="106.366" y="-68.416" type="curve" smooth="yes"/>
      <point x="107.289" y="-77.4128"/>
      <point x="108.62" y="-86.0605"/>
      <point x="110.359" y="-94.3594" type="curve" smooth="yes"/>
      <point x="112.624" y="-105.171"/>
      <point x="118.38" y="-113.598"/>
      <point x="127.627" y="-119.641" type="curve" smooth="yes"/>
      <point x="136.873" y="-125.683"/>
      <point x="146.901" y="-127.572"/>
      <point x="157.712" y="-125.307" type="curve" smooth="yes"/>
      <point x="168.523" y="-123.041"/>
      <point x="176.95" y="-117.285"/>
      <point x="182.993" y="-108.039" type="curve" smooth="yes"/>
      <point x="189.035" y="-98.793"/>
      <point x="190.924" y="-88.7643"/>
      <point x="188.659" y="-77.9531" type="curve" smooth="yes"/>
      <point x="187.491" y="-72.3783"/>
      <point x="186.587" y="-66.4769"/>
      <point x="185.948" y="-60.249" type="curve" smooth="yes"/>
      <point x="184.821" y="-49.2607"/>
      <point x="179.973" y="-40.2806"/>
      <point x="171.406" y="-33.3086" type="curve" smooth="yes"/>
      <point x="162.839" y="-26.3359"/>
      <point x="153.062" y="-23.4134"/>
      <point x="142.073" y="-24.541" type="curve" smooth="yes"/>
      <point x="131.085" y="-25.6686"/>
      <point x="122.105" y="-30.516"/>
      <point x="115.133" y="-39.083" type="curve" smooth="yes"/>
      <point x="108.161" y="-47.6501"/>
      <point x="105.239" y="-57.4277"/>
    </contour>
    <contour>
      <point x="176.504" y="-196.215" type="curve" smooth="yes"/>
      <point x="185.567" y="-201.643"/>
      <point x="195.304" y="-205.922"/>
      <point x="205.714" y="-209.05" type="curve" smooth="yes"/>
      <point x="216.292" y="-212.229"/>
      <point x="226.445" y="-211.202"/>
      <point x="236.173" y="-205.97" type="curve" smooth="yes"/>
      <point x="245.901" y="-200.737"/>
      <point x="252.354" y="-192.832"/>
      <point x="255.533" y="-182.254" type="curve" smooth="yes"/>
      <point x="258.712" y="-171.675"/>
      <point x="257.686" y="-161.522"/>
      <point x="252.453" y="-151.794" type="curve" smooth="yes"/>
      <point x="247.221" y="-142.066"/>
      <point x="239.315" y="-135.613"/>
      <point x="228.737" y="-132.435" type="curve" smooth="yes"/>
      <point x="224.685" y="-131.216"/>
      <point x="220.976" y="-129.599"/>
      <point x="217.608" y="-127.582" type="curve" smooth="yes"/>
      <point x="208.132" y="-121.907"/>
      <point x="198.037" y="-120.413"/>
      <point x="187.323" y="-123.101" type="curve" smooth="yes"/>
      <point x="176.61" y="-125.789"/>
      <point x="168.415" y="-131.871"/>
      <point x="162.739" y="-141.347" type="curve" smooth="yes"/>
      <point x="157.064" y="-150.823"/>
      <point x="155.57" y="-160.918"/>
      <point x="158.258" y="-171.632" type="curve" smooth="yes"/>
      <point x="160.946" y="-182.345"/>
      <point x="167.028" y="-190.54"/>
    </contour>
    <contour>
      <point x="320.884" y="-202.925" type="curve" smooth="yes"/>
      <point x="329.059" y="-200.079"/>
      <point x="337.175" y="-196.756"/>
      <point x="345.231" y="-192.955" type="curve" smooth="yes"/>
      <point x="355.222" y="-188.242"/>
      <point x="362.082" y="-180.688"/>
      <point x="365.813" y="-170.291" type="curve" smooth="yes"/>
      <point x="369.545" y="-159.895"/>
      <point x="369.055" y="-149.701"/>
      <point x="364.342" y="-139.712" type="curve" smooth="yes"/>
      <point x="359.629" y="-129.722"/>
      <point x="352.074" y="-122.862"/>
      <point x="341.678" y="-119.13" type="curve" smooth="yes"/>
      <point x="331.282" y="-115.399"/>
      <point x="321.089" y="-115.889"/>
      <point x="311.099" y="-120.602" type="curve" smooth="yes"/>
      <point x="305.597" y="-123.198"/>
      <point x="300.092" y="-125.454"/>
      <point x="294.584" y="-127.371" type="curve" smooth="yes"/>
      <point x="284.152" y="-131.003"/>
      <point x="276.531" y="-137.79"/>
      <point x="271.723" y="-147.734" type="curve" smooth="yes"/>
      <point x="266.914" y="-157.678"/>
      <point x="266.326" y="-167.867"/>
      <point x="269.957" y="-178.299" type="curve" smooth="yes"/>
      <point x="273.589" y="-188.73"/>
      <point x="280.376" y="-196.351"/>
      <point x="290.32" y="-201.159" type="curve" smooth="yes"/>
      <point x="300.264" y="-205.968"/>
      <point x="310.452" y="-206.556"/>
    </contour>
    <contour>
      <point x="430.669" y="-132.128" type="curve" smooth="yes"/>
      <point x="436.392" y="-126.548"/>
      <point x="442.049" y="-120.699"/>
      <point x="447.639" y="-114.58" type="curve" smooth="yes"/>
      <point x="455.089" y="-106.424"/>
      <point x="458.564" y="-96.8294"/>
      <point x="458.065" y="-85.7949" type="curve" smooth="yes"/>
      <point x="457.566" y="-74.7604"/>
      <point x="453.239" y="-65.5182"/>
      <point x="445.084" y="-58.0684" type="curve" smooth="yes"/>
      <point x="436.929" y="-50.6191"/>
      <point x="427.334" y="-47.1439"/>
      <point x="416.3" y="-47.6426" type="curve" smooth="yes"/>
      <point x="405.265" y="-48.1413"/>
      <point x="396.023" y="-52.4681"/>
      <point x="388.573" y="-60.623" type="curve" smooth="yes"/>
      <point x="384.024" y="-65.6029"/>
      <point x="379.44" y="-70.3444"/>
      <point x="374.821" y="-74.8477" type="curve" smooth="yes"/>
      <point x="366.912" y="-82.5579"/>
      <point x="362.888" y="-91.9355"/>
      <point x="362.748" y="-102.98" type="curve" smooth="yes"/>
      <point x="362.608" y="-114.025"/>
      <point x="366.394" y="-123.502"/>
      <point x="374.104" y="-131.411" type="curve" smooth="yes"/>
      <point x="381.815" y="-139.32"/>
      <point x="391.193" y="-143.344"/>
      <point x="402.238" y="-143.484" type="curve" smooth="yes"/>
      <point x="413.283" y="-143.624"/>
      <point x="422.759" y="-139.839"/>
    </contour>
    <contour>
      <point x="507.128" y="-35.2285" type="curve" smooth="yes"/>
      <point x="511.205" y="-28.7129"/>
      <point x="515.236" y="-22.027"/>
      <point x="519.22" y="-15.1709" type="curve" smooth="yes"/>
      <point x="524.769" y="-5.62012"/>
      <point x="526.128" y="4.49382"/>
      <point x="523.299" y="15.1709" type="curve" smooth="yes"/>
      <point x="520.469" y="25.848"/>
      <point x="514.279" y="33.9609"/>
      <point x="504.729" y="39.5098" type="curve" smooth="yes"/>
      <point x="495.178" y="45.0592"/>
      <point x="485.064" y="46.4193"/>
      <point x="474.387" y="43.5898" type="curve" smooth="yes"/>
      <point x="463.71" y="40.7598"/>
      <point x="455.597" y="34.5697"/>
      <point x="450.048" y="25.0195" type="curve" smooth="yes"/>
      <point x="446.504" y="18.9206"/>
      <point x="442.926" y="12.9847"/>
      <point x="439.313" y="7.21191" type="curve" smooth="yes"/>
      <point x="433.453" y="-2.15202"/>
      <point x="431.762" y="-12.2158"/>
      <point x="434.24" y="-22.9795" type="curve" smooth="yes"/>
      <point x="436.717" y="-33.7438"/>
      <point x="442.638" y="-42.056"/>
      <point x="452.001" y="-47.916" type="curve" smooth="yes"/>
      <point x="461.364" y="-53.7754"/>
      <point x="471.428" y="-55.4665"/>
      <point x="482.192" y="-52.9893" type="curve" smooth="yes"/>
      <point x="492.957" y="-50.512"/>
      <point x="501.269" y="-44.5918"/>
    </contour>
    <contour>
      <point x="562.99" y="72.3086" type="curve" smooth="yes"/>
      <point x="565.985" y="79.7767"/>
      <point x="568.79" y="87.3887"/>
      <point x="571.404" y="95.1445" type="curve" smooth="yes"/>
      <point x="574.932" y="105.611"/>
      <point x="574.243" y="115.793"/>
      <point x="569.337" y="125.688" type="curve" smooth="yes"/>
      <point x="564.431" y="135.585"/>
      <point x="556.744" y="142.298"/>
      <point x="546.276" y="145.826" type="curve" smooth="yes"/>
      <point x="535.81" y="149.354"/>
      <point x="525.628" y="148.665"/>
      <point x="515.731" y="143.759" type="curve" smooth="yes"/>
      <point x="505.836" y="138.853"/>
      <point x="499.123" y="131.166"/>
      <point x="495.595" y="120.698" type="curve" smooth="yes"/>
      <point x="493.46" y="114.364"/>
      <point x="491.174" y="108.159"/>
      <point x="488.737" y="102.083" type="curve" smooth="yes"/>
      <point x="484.627" y="91.8304"/>
      <point x="484.743" y="81.626"/>
      <point x="489.085" y="71.4697" type="curve" smooth="yes"/>
      <point x="493.427" y="61.3135"/>
      <point x="500.725" y="54.18"/>
      <point x="510.977" y="50.0693" type="curve" smooth="yes"/>
      <point x="521.229" y="45.958"/>
      <point x="531.433" y="46.0736"/>
      <point x="541.589" y="50.416" type="curve" smooth="yes"/>
      <point x="551.746" y="54.7585"/>
      <point x="558.88" y="62.056"/>
    </contour>
    <contour>
      <point x="592.511" y="194.259" type="curve" smooth="yes"/>
      <point x="593.256" y="202.674"/>
      <point x="593.705" y="210.944"/>
      <point x="593.86" y="219.069" type="curve" smooth="yes"/>
      <point x="594.071" y="230.113"/>
      <point x="590.347" y="239.614"/>
      <point x="582.688" y="247.572" type="curve" smooth="yes"/>
      <point x="575.027" y="255.53"/>
      <point x="565.675" y="259.614"/>
      <point x="554.632" y="259.825" type="curve" smooth="yes"/>
      <point x="543.588" y="260.036"/>
      <point x="534.087" y="256.312"/>
      <point x="526.129" y="248.652" type="curve" smooth="yes"/>
      <point x="518.171" y="240.992"/>
      <point x="514.086" y="231.64"/>
      <point x="513.875" y="220.597" type="curve" smooth="yes"/>
      <point x="513.755" y="214.316"/>
      <point x="513.404" y="207.888"/>
      <point x="512.822" y="201.312" type="curve" smooth="yes"/>
      <point x="511.848" y="190.309"/>
      <point x="514.907" y="180.573"/>
      <point x="521.999" y="172.104" type="curve" smooth="yes"/>
      <point x="529.09" y="163.636"/>
      <point x="538.137" y="158.914"/>
      <point x="549.14" y="157.94" type="curve" smooth="yes"/>
      <point x="560.142" y="156.967"/>
      <point x="569.878" y="160.026"/>
      <point x="578.347" y="167.117" type="curve" smooth="yes"/>
      <point x="586.815" y="174.209"/>
      <point x="591.537" y="183.256"/>
    </contour>
    <contour>
      <point x="573.104" y="327.194" type="curve" smooth="yes"/>
      <point x="568.568" y="336.424"/>
      <point x="563.329" y="344.914"/>
      <point x="557.386" y="352.666" type="curve" smooth="yes"/>
      <point x="550.664" y="361.431"/>
      <point x="541.828" y="366.536"/>
      <point x="530.878" y="367.982" type="curve" smooth="yes"/>
      <point x="519.927" y="369.428"/>
      <point x="510.069" y="366.791"/>
      <point x="501.304" y="360.069" type="curve" smooth="yes"/>
      <point x="492.538" y="353.349"/>
      <point x="487.432" y="344.513"/>
      <point x="485.986" y="333.562" type="curve" smooth="yes"/>
      <point x="484.541" y="322.612"/>
      <point x="487.179" y="312.754"/>
      <point x="493.899" y="303.988" type="curve" smooth="yes"/>
      <point x="496.63" y="300.427"/>
      <point x="499.098" y="296.401"/>
      <point x="501.305" y="291.911" type="curve" smooth="yes"/>
      <point x="506.176" y="281.998"/>
      <point x="513.84" y="275.259"/>
      <point x="524.294" y="271.694" type="curve" smooth="yes"/>
      <point x="534.748" y="268.129"/>
      <point x="544.932" y="268.782"/>
      <point x="554.846" y="273.653" type="curve" smooth="yes"/>
      <point x="564.759" y="278.525"/>
      <point x="571.498" y="286.188"/>
      <point x="575.063" y="296.643" type="curve" smooth="yes"/>
      <point x="578.629" y="307.097"/>
      <point x="577.975" y="317.281"/>
    </contour>
    <contour>
      <point x="445.69" y="405.971" type="curve" smooth="yes"/>
      <point x="443.524" y="405.997" type="line" smooth="yes"/>
      <point x="434.187" y="405.999"/>
      <point x="425.003" y="405.423"/>
      <point x="415.971" y="404.269" type="curve" smooth="yes"/>
      <point x="405.014" y="402.868"/>
      <point x="396.158" y="397.799"/>
      <point x="389.4" y="389.062" type="curve" smooth="yes"/>
      <point x="382.643" y="380.324"/>
      <point x="379.964" y="370.477"/>
      <point x="381.364" y="359.521" type="curve" smooth="yes"/>
      <point x="382.765" y="348.564"/>
      <point x="387.834" y="339.707"/>
      <point x="396.571" y="332.949" type="curve" smooth="yes"/>
      <point x="405.309" y="326.192"/>
      <point x="415.156" y="323.514"/>
      <point x="426.112" y="324.914" type="curve" smooth="yes"/>
      <point x="431.777" y="325.638"/>
      <point x="437.261" y="326.001"/>
      <point x="442.563" y="326.003" type="curve" smooth="yes"/>
      <point x="444.729" y="325.977" type="line" smooth="yes"/>
      <point x="455.774" y="325.844"/>
      <point x="465.249" y="329.636"/>
      <point x="473.152" y="337.353" type="curve" smooth="yes"/>
      <point x="481.056" y="345.069"/>
      <point x="485.074" y="354.449"/>
      <point x="485.207" y="365.494" type="curve" smooth="yes"/>
      <point x="485.339" y="376.539"/>
      <point x="481.548" y="386.013"/>
      <point x="473.832" y="393.917" type="curve" smooth="yes"/>
      <point x="466.115" y="401.821"/>
      <point x="456.735" y="405.839"/>
    </contour>
  </outline>
</glyph>
<glyph name="globe" format="2">
  <advance width="700"/>
  <unicode hex="F036"/>
  <outline>
    <contour>
      <point x="430" y="263.5" type="line"/>
      <point x="447.28" y="256.66"/>
      <point x="563.75" y="205.387"/>
      <point x="563.75" y="66" type="curve" smooth="yes"/>
      <point x="563.75" y="33.3691"/>
      <point x="555.79" y="-24.8604"/>
      <point x="507.5" y="-77.75" type="curve"/>
      <point x="500.923" y="-56.374"/>
      <point x="480.229" y="-40.25"/>
      <point x="456.25" y="-40.25" type="curve" smooth="yes"/>
      <point x="430" y="-40.25" type="line"/>
      <point x="430" y="39.75" type="line" smooth="yes"/>
      <point x="430" y="54.876"/>
      <point x="418.875" y="66"/>
      <point x="403.75" y="66" type="curve" smooth="yes"/>
      <point x="243.75" y="66" type="line"/>
      <point x="243.75" y="119.75" type="line"/>
      <point x="296.25" y="119.75" type="line" smooth="yes"/>
      <point x="310.721" y="119.75"/>
      <point x="323.75" y="130.24"/>
      <point x="323.75" y="146" type="curve" smooth="yes"/>
      <point x="323.75" y="199.75" type="line"/>
      <point x="376.25" y="199.75" type="line" smooth="yes"/>
      <point x="407.414" y="199.75"/>
      <point x="430" y="224.487"/>
      <point x="430" y="252.25" type="curve" smooth="yes"/>
    </contour>
    <contour>
      <point x="270" y="-40.25" type="line" smooth="yes"/>
      <point x="270" y="-70.5332"/>
      <point x="293.468" y="-94"/>
      <point x="323.75" y="-94" type="curve"/>
      <point x="323.75" y="-145.25" type="line"/>
      <point x="219.736" y="-132.867"/>
      <point x="136.25" y="-42.9834"/>
      <point x="136.25" y="66" type="curve" smooth="yes"/>
      <point x="136.25" y="81.834"/>
      <point x="138.334" y="97.666"/>
      <point x="142.5" y="113.5" type="curve"/>
      <point x="270" y="-14" type="line"/>
    </contour>
    <contour>
      <point x="616.25" y="66" type="curve" smooth="yes"/>
      <point x="616.25" y="214.068"/>
      <point x="498.061" y="332.25"/>
      <point x="350" y="332.25" type="curve" smooth="yes"/>
      <point x="201.932" y="332.25"/>
      <point x="83.75" y="214.061"/>
      <point x="83.75" y="66" type="curve" smooth="yes"/>
      <point x="83.75" y="-82.0684"/>
      <point x="201.939" y="-200.25"/>
      <point x="350" y="-200.25" type="curve" smooth="yes"/>
      <point x="498.068" y="-200.25"/>
      <point x="616.25" y="-82.0605"/>
    </contour>
  </outline>
</glyph>
<glyph name="ufo" format="2">
  <advance width="700"/>
  <unicode hex="F037"/>
  <outline>
    <contour>
      <point x="483.75" y="128.125" type="curve"/>
      <point x="481.25" y="155.625"/>
      <point x="473.959" y="180.625"/>
      <point x="461.875" y="203.125" type="curve" smooth="yes"/>
      <point x="449.791" y="225.625"/>
      <point x="433.959" y="243.334"/>
      <point x="414.375" y="256.25" type="curve" smooth="yes"/>
      <point x="394.791" y="269.166"/>
      <point x="373.334" y="275.625"/>
      <point x="350" y="275.625" type="curve" smooth="yes"/>
      <point x="326.666" y="275.625"/>
      <point x="305.209" y="269.166"/>
      <point x="285.625" y="256.25" type="curve" smooth="yes"/>
      <point x="266.041" y="243.334"/>
      <point x="250.209" y="225.625"/>
      <point x="238.125" y="203.125" type="curve" smooth="yes"/>
      <point x="226.041" y="180.625"/>
      <point x="218.75" y="155.625"/>
      <point x="216.25" y="128.125" type="curve"/>
      <point x="175.416" y="118.959"/>
      <point x="143.125" y="106.25"/>
      <point x="119.375" y="90" type="curve" smooth="yes"/>
      <point x="95.625" y="73.75"/>
      <point x="83.75" y="55.834"/>
      <point x="83.75" y="36.25" type="curve" smooth="yes"/>
      <point x="83.75" y="16.666"/>
      <point x="95.625" y="-1.25"/>
      <point x="119.375" y="-17.5" type="curve" smooth="yes"/>
      <point x="143.125" y="-33.75"/>
      <point x="175.416" y="-46.666"/>
      <point x="216.25" y="-56.25" type="curve" smooth="yes"/>
      <point x="257.084" y="-65.834"/>
      <point x="301.666" y="-70.625"/>
      <point x="350" y="-70.625" type="curve" smooth="yes"/>
      <point x="398.334" y="-70.625"/>
      <point x="442.916" y="-65.834"/>
      <point x="483.75" y="-56.25" type="curve" smooth="yes"/>
      <point x="524.584" y="-46.666"/>
      <point x="556.875" y="-33.75"/>
      <point x="580.625" y="-17.5" type="curve" smooth="yes"/>
      <point x="604.375" y="-1.25"/>
      <point x="616.25" y="16.666"/>
      <point x="616.25" y="36.25" type="curve" smooth="yes"/>
      <point x="616.25" y="55.834"/>
      <point x="604.375" y="73.75"/>
      <point x="580.625" y="90" type="curve" smooth="yes"/>
      <point x="556.875" y="106.25"/>
      <point x="524.584" y="118.959"/>
    </contour>
    <contour>
      <point x="428.75" y="93.125" type="curve"/>
      <point x="376.25" y="88.125"/>
      <point x="323.75" y="88.125"/>
      <point x="271.25" y="93.125" type="curve"/>
      <point x="270.416" y="102.291"/>
      <point x="270" y="109.791"/>
      <point x="270" y="115.625" type="curve" smooth="yes"/>
      <point x="270" y="145.625"/>
      <point x="277.916" y="171.041"/>
      <point x="293.75" y="191.875" type="curve" smooth="yes"/>
      <point x="309.584" y="212.709"/>
      <point x="328.334" y="223.125"/>
      <point x="350" y="223.125" type="curve" smooth="yes"/>
      <point x="371.666" y="223.125"/>
      <point x="390.416" y="212.709"/>
      <point x="406.25" y="191.875" type="curve" smooth="yes"/>
      <point x="422.084" y="171.041"/>
      <point x="430" y="145.625"/>
      <point x="430" y="115.625" type="curve" smooth="yes"/>
      <point x="430" y="105.625"/>
      <point x="429.584" y="98.125"/>
    </contour>
  </outline>
</glyph>
